<svg xmlns="http://www.w3.org/2000/svg" xmlns:xlink="http://www.w3.org/1999/xlink" width="1180" zoomAndPan="magnify" viewBox="0 0 884.88 749.999995" height="1000" preserveAspectRatio="xMidYMid meet" version="1.2"><g id="094a2cd7c5"><path style="fill-rule:nonzero;fill:#253237;fill-opacity:1;stroke-width:2;stroke-linecap:round;stroke-linejoin:round;stroke:#253237;stroke-opacity:1;stroke-miterlimit:4;" d="M 63.291936 -81.295629 C 63.291936 -81.295629 -20.86923 -5.846613 -20.86923 -5.846613 C -20.86923 -5.846613 -5.510408 7.373567 -5.510408 7.373567 C -5.510408 7.373567 -63.293121 81.297394 -63.293121 81.297394 C -63.293121 81.297394 34.420277 -5.047437 34.420277 -5.047437 C 34.420277 -5.047437 18.346699 -18.886698 18.346699 -18.886698 C 18.346699 -18.886698 63.291936 -81.295629 63.291936 -81.295629 Z M 63.291936 -81.295629 " transform="matrix(0.694074,0,0,0.694074,676.516036,239.499388)"/><path style="fill-rule:nonzero;fill:#ffffff;fill-opacity:1;stroke-width:2;stroke-linecap:round;stroke-linejoin:round;stroke:#253237;stroke-opacity:1;stroke-miterlimit:4;" d="M 21.07433 -83.704955 C 21.07433 -83.704955 -19.391016 2.307824 -19.391016 2.307824 C -19.391016 2.307824 -3.165482 7.513727 -3.165482 7.513727 C -3.165482 7.513727 -23.696439 83.70564 -23.696439 83.70564 C -23.696439 83.70564 23.696979 -15.184011 23.696979 -15.184011 C 23.696979 -15.184011 6.711664 -20.637547 6.711664 -20.637547 C 6.711664 -20.637547 21.07433 -83.704955 21.07433 -83.704955 Z M 21.07433 -83.704955 " transform="matrix(0.694074,0,0,0.694074,659.966609,176.238044)"/><path style="fill-rule:nonzero;fill:#ffffff;fill-opacity:1;stroke-width:2;stroke-linecap:round;stroke-linejoin:round;stroke:#253237;stroke-opacity:1;stroke-miterlimit:4;" d="M -35.335605 -79.116332 C -35.335605 -79.116332 -12.587215 13.177299 -12.587215 13.177299 C -12.587215 13.177299 3.295011 7.003379 3.295011 7.003379 C 3.295011 7.003379 35.335236 79.114989 35.335236 79.114989 C 35.335236 79.114989 9.857263 -27.546935 9.857263 -27.546935 C 9.857263 -27.546935 -6.767859 -21.080359 -6.767859 -21.080359 C -6.767859 -21.080359 -35.335605 -79.116332 -35.335605 -79.116332 Z M -35.335605 -79.116332 " transform="matrix(0.694074,0,0,0.694074,148.322394,271.732888)"/><path style="fill-rule:nonzero;fill:#253237;fill-opacity:1;stroke-width:2;stroke-linecap:round;stroke-linejoin:round;stroke:#253237;stroke-opacity:1;stroke-miterlimit:4;" d="M -19.091769 -84.51924 C -19.091769 -84.51924 -14.932674 10.447693 -14.932674 10.447693 C -14.932674 10.447693 1.85566 7.515503 1.85566 7.515503 C 1.85566 7.515503 19.094235 84.517848 19.094235 84.517848 C 19.094235 84.517848 15.081469 -25.070638 15.081469 -25.070638 C 15.081469 -25.070638 -2.494786 -22.003376 -2.494786 -22.003376 C -2.494786 -22.003376 -19.091769 -84.51924 -19.091769 -84.51924 Z M -19.091769 -84.51924 " transform="matrix(0.694074,0,0,0.694074,186.098753,218.221186)"/><path style="fill-rule:nonzero;fill:#ffffff;fill-opacity:1;stroke-width:2;stroke-linecap:round;stroke-linejoin:round;stroke:#253237;stroke-opacity:1;stroke-miterlimit:4;" d="M -128.792379 -4.059901 C -133.04715 -37.940482 -110.225595 -68.70315 -77.819551 -72.777824 C -73.407196 -73.329369 -69.039865 -73.363137 -64.790722 -72.912896 C -56.117969 -97.417224 -34.984816 -116.045916 -8.358731 -119.394578 C 13.072707 -122.084764 33.519244 -114.301235 48.219589 -99.893546 C 51.168663 -100.95161 54.269693 -101.700135 57.505795 -102.110979 C 82.415339 -105.240149 105.265034 -86.662109 108.534904 -60.626965 C 109.497292 -52.967252 108.664348 -45.515775 106.362494 -38.728403 C 118.518982 -30.218861 127.259272 -16.486533 129.302237 -0.19909 C 133.050487 29.584305 112.986654 56.63249 84.492072 60.2119 C 84.120624 60.262552 83.743548 60.307576 83.366472 60.335716 C 83.366472 60.335716 83.3721 60.3526 83.3721 60.3526 C 87.030302 89.500031 67.399826 115.951648 39.529952 119.457894 C 18.610663 122.086171 -0.997302 111.055284 -11.032032 93.062557 C -40.201975 96.354939 -67.160112 77.844435 -76.660182 49.884514 C -103.111799 46.541479 -125.173573 24.744222 -128.792379 -4.059901 Z M -128.792379 -4.059901 " transform="matrix(0.694074,0,0,0.694074,672.942201,386.395996)"/><path style=" stroke:none;fill-rule:nonzero;fill:#000000;fill-opacity:1;" d="M 684.1875 409.933594 C 684.628906 408.753906 684.96875 407.875 685.203125 407.292969 C 686.601562 403.859375 688.292969 401.09375 690.28125 398.996094 C 691.753906 397.40625 693.675781 395.984375 696.039062 394.714844 C 697.773438 393.800781 700.695312 392.617188 704.8125 391.179688 C 708.929688 389.738281 711.761719 388.410156 713.3125 387.191406 C 714.863281 385.976562 716.023438 384.425781 716.789062 382.546875 C 718.171875 379.148438 718.058594 375.617188 716.453125 371.964844 C 714.84375 368.308594 712.113281 365.699219 708.257812 364.128906 C 704.539062 362.613281 700.953125 362.515625 697.507812 363.832031 C 694.066406 365.148438 690.949219 368.125 688.15625 372.765625 C 688.15625 372.765625 679.605469 368.039062 679.605469 368.039062 C 683.113281 361.730469 687.585938 357.625 693.023438 355.722656 C 698.460938 353.820312 704.460938 354.203125 711.039062 356.878906 C 718.003906 359.714844 722.78125 363.867188 725.386719 369.34375 C 727.992188 374.820312 728.199219 380.246094 726.011719 385.621094 C 724.746094 388.730469 722.851562 391.300781 720.328125 393.328125 C 717.804688 395.359375 713.65625 397.390625 707.882812 399.421875 C 704.007812 400.789062 701.386719 401.890625 700.023438 402.734375 C 698.664062 403.578125 697.453125 404.6875 696.402344 406.070312 C 695.351562 407.457031 694.078125 409.882812 692.589844 413.355469 C 692.589844 413.355469 684.1875 409.933594 684.1875 409.933594 Z M 676.515625 427.253906 C 676.515625 427.253906 680.566406 417.292969 680.566406 417.292969 C 680.566406 417.292969 690.527344 421.347656 690.527344 421.347656 C 690.527344 421.347656 686.472656 431.304688 686.472656 431.304688 C 686.472656 431.304688 676.515625 427.253906 676.515625 427.253906 Z M 676.515625 427.253906 "/><path style=" stroke:none;fill-rule:nonzero;fill:#000000;fill-opacity:1;" d="M 645.871094 396.167969 C 645.871094 396.167969 652.4375 353.753906 652.4375 353.753906 C 652.4375 353.753906 656.417969 336.296875 656.417969 336.296875 C 656.417969 336.296875 668.398438 339.03125 668.398438 339.03125 C 668.398438 339.03125 664.414062 356.488281 664.414062 356.488281 C 664.414062 356.488281 652.101562 397.589844 652.101562 397.589844 C 652.101562 397.589844 645.871094 396.167969 645.871094 396.167969 Z M 638.886719 415.144531 C 638.886719 415.144531 641.398438 404.132812 641.398438 404.132812 C 641.398438 404.132812 652.515625 406.667969 652.515625 406.667969 C 652.515625 406.667969 650.007812 417.683594 650.007812 417.683594 C 650.007812 417.683594 638.886719 415.144531 638.886719 415.144531 Z M 638.886719 415.144531 "/><path style="fill-rule:nonzero;fill:#253237;fill-opacity:1;stroke-width:2;stroke-linecap:round;stroke-linejoin:round;stroke:#253237;stroke-opacity:1;stroke-miterlimit:4;" d="M 117.53944 91.355881 C 117.53944 91.355881 -117.54227 91.355881 -117.54227 91.355881 C -117.54227 91.355881 -117.54227 -91.357255 -117.54227 -91.357255 C -117.54227 -91.357255 117.53944 -91.357255 117.53944 -91.357255 C 117.53944 -91.357255 117.53944 91.355881 117.53944 91.355881 Z M 117.53944 91.355881 " transform="matrix(0.694074,0,0,0.694074,515.883795,233.963367)"/><path style="fill-rule:nonzero;fill:#ffffff;fill-opacity:1;stroke-width:2;stroke-linecap:round;stroke-linejoin:round;stroke:#253237;stroke-opacity:1;stroke-miterlimit:4;" d="M 117.539453 91.36025 C 117.539453 91.36025 -117.542257 91.36025 -117.542257 91.36025 C -117.542257 91.36025 -117.542257 -91.358514 -117.542257 -91.358514 C -117.542257 -91.358514 117.539453 -91.358514 117.539453 -91.358514 C 117.539453 -91.358514 117.539453 91.36025 117.539453 91.36025 Z M 117.539453 91.36025 " transform="matrix(0.694074,0,0,0.694074,508.836911,222.878304)"/><path style="fill-rule:nonzero;fill:#92654f;fill-opacity:1;stroke-width:2;stroke-linecap:round;stroke-linejoin:round;stroke:#253237;stroke-opacity:1;stroke-miterlimit:4;" d="M 117.539453 16.526755 C 117.539453 16.526755 -117.542257 16.526755 -117.542257 16.526755 C -117.542257 16.526755 -117.542257 -16.52651 -117.542257 -16.52651 C -117.542257 -16.52651 117.539453 -16.52651 117.539453 -16.52651 C 117.539453 -16.52651 117.539453 16.526755 117.539453 16.526755 Z M 117.539453 16.526755 " transform="matrix(0.694074,0,0,0.694074,508.836911,170.939368)"/><path style="fill-rule:nonzero;fill:#ffffff;fill-opacity:1;stroke-width:2;stroke-linecap:round;stroke-linejoin:round;stroke:#253237;stroke-opacity:1;stroke-miterlimit:4;" d="M 101.718201 63.700905 C 101.718201 63.700905 -101.717244 63.700905 -101.717244 63.700905 C -101.717244 63.700905 -101.717244 -63.700212 -101.717244 -63.700212 C -101.717244 -63.700212 101.718201 -63.700212 101.718201 -63.700212 C 101.718201 -63.700212 101.718201 63.700905 101.718201 63.700905 Z M 101.718201 63.700905 " transform="matrix(0.694074,0,0,0.694074,508.837559,233.96265)"/><path style="fill:none;stroke-width:2;stroke-linecap:round;stroke-linejoin:round;stroke:#253237;stroke-opacity:1;stroke-miterlimit:4;" d="M -87.155681 -50.114043 C -87.155681 -50.114043 -87.155681 50.109444 -87.155681 50.109444 C -87.155681 50.109444 87.160473 50.109444 87.160473 50.109444 " transform="matrix(0.694074,0,0,0.694074,507.840134,235.357065)"/><path style="fill:none;stroke-width:2;stroke-linecap:round;stroke-linejoin:round;stroke:#253237;stroke-opacity:1;stroke-miterlimit:4;" d="M 30.363239 78.405586 C 30.363239 78.405586 204.679394 78.405586 204.679394 78.405586 " transform="matrix(0.694074,0,0,0.694074,426.273327,158.486984)"/><path style="fill:none;stroke-width:2;stroke-linecap:round;stroke-linejoin:round;stroke:#253237;stroke-opacity:1;stroke-miterlimit:4;" d="M 30.363239 105.718288 C 30.363239 105.718288 204.679394 105.718288 204.679394 105.718288 " transform="matrix(0.694074,0,0,0.694074,426.273327,158.486984)"/><path style="fill:none;stroke-width:2;stroke-linecap:round;stroke-linejoin:round;stroke:#253237;stroke-opacity:1;stroke-miterlimit:4;" d="M 30.363239 133.030989 C 30.363239 133.030989 204.679394 133.030989 204.679394 133.030989 " transform="matrix(0.694074,0,0,0.694074,426.273327,158.486984)"/><path style="fill:none;stroke-width:5;stroke-linecap:round;stroke-linejoin:round;stroke:#92654f;stroke-opacity:1;stroke-miterlimit:4;" d="M -66.821944 48.612603 C -66.821944 48.612603 -35.158796 3.701135 -35.158796 3.701135 C -35.158796 3.701135 0.168183 33.326945 0.168183 33.326945 C 0.168183 33.326945 32.163383 -48.616787 32.163383 -48.616787 C 32.163383 -48.616787 66.820629 19.110608 66.820629 19.110608 " transform="matrix(0.694074,0,0,0.694074,506.887175,232.677233)"/><path style="fill:none;stroke-width:5;stroke-linecap:round;stroke-linejoin:round;stroke:#92654f;stroke-opacity:1;stroke-miterlimit:4;" d="M -4.666247 1.458828 C -4.666247 1.458828 3.499986 3.665005 3.499986 3.665005 C 3.499986 3.665005 4.664983 -3.662655 4.664983 -3.662655 " transform="matrix(0.694074,0,0,0.694074,551.934032,244.706216)"/><path style="fill-rule:nonzero;fill:#ffffff;fill-opacity:1;stroke-width:2;stroke-linecap:round;stroke-linejoin:round;stroke:#253237;stroke-opacity:1;stroke-miterlimit:4;" d="M 105.905559 37.178042 C 118.371587 10.439397 107.740288 -20.908583 82.161012 -32.828694 C 78.677277 -34.455187 75.092239 -35.637068 71.479061 -36.39122 C 70.83184 -58.841327 58.377069 -79.754988 37.367731 -89.553342 C 20.449952 -97.438175 1.573628 -96.447647 -14.33111 -88.489649 C -16.481007 -90.138655 -18.833513 -91.573795 -21.382998 -92.766932 C -41.047243 -101.929322 -64.758022 -92.699396 -74.336884 -72.145927 C -77.156514 -66.107079 -78.439698 -59.753063 -78.344022 -53.562259 C -90.596186 -49.780241 -101.418837 -40.797947 -107.412661 -27.943587 C -118.370384 -4.435416 -109.02227 23.124917 -86.532768 33.609888 C -86.245739 33.74496 -85.941827 33.88566 -85.643543 34.003848 C -85.649171 34.009476 -85.649171 34.009476 -85.649171 34.020732 C -96.376146 57.022383 -87.225012 83.98052 -65.230774 94.234743 C -48.718212 101.933851 -29.673047 98.050529 -16.655475 85.905297 C 6.464364 96.333988 33.535061 88.240919 48.747554 67.760614 C 71.394641 72.009756 95.3024 59.915177 105.905559 37.178042 Z M 105.905559 37.178042 " transform="matrix(0.694074,0,0,0.694074,303.630442,145.797256)"/><path style="fill-rule:nonzero;fill:#92654f;fill-opacity:1;stroke-width:2;stroke-linecap:round;stroke-linejoin:round;stroke:#253237;stroke-opacity:1;stroke-miterlimit:4;" d="M -12.706675 -39.982162 C -12.706675 -39.982162 -51.815672 27.756489 -51.815672 27.756489 C -57.460559 37.537959 -50.403043 49.761983 -39.10764 49.761983 C -39.10764 49.761983 39.110354 49.761983 39.110354 49.761983 C 50.405757 49.761983 57.463274 37.537959 51.812758 27.756489 C 51.812758 27.756489 12.703761 -39.982162 12.703761 -39.982162 C 7.058874 -49.763633 -7.056159 -49.763633 -12.706675 -39.982162 Z M -12.706675 -39.982162 " transform="matrix(0.694074,0,0,0.694074,299.799839,138.449791)"/><path style="fill-rule:nonzero;fill:#ffffff;fill-opacity:1;stroke-width:2;stroke-linecap:round;stroke-linejoin:round;stroke:#253237;stroke-opacity:1;stroke-miterlimit:4;" d="M -3.246001 12.232173 C -3.246001 12.232173 -6.245727 -18.344771 -6.245727 -18.344771 C -6.245727 -18.344771 -6.245727 -32.482315 -6.245727 -32.482315 C -6.245727 -32.482315 6.248441 -32.482315 6.248441 -32.482315 C 6.248441 -32.482315 6.248441 -18.344771 6.248441 -18.344771 C 6.248441 -18.344771 3.288111 12.232173 3.288111 12.232173 C 3.288111 12.232173 -3.246001 12.232173 -3.246001 12.232173 Z M -5.75609 20.933066 C -5.75609 20.933066 5.792573 20.933066 5.792573 20.933066 C 5.792573 20.933066 5.792573 32.48173 5.792573 32.48173 C 5.792573 32.48173 -5.75609 32.48173 -5.75609 32.48173 C -5.75609 32.48173 -5.75609 20.933066 -5.75609 20.933066 Z M -5.75609 20.933066 " transform="matrix(0.694074,0,0,0.694074,299.799839,141.174031)"/><path style="fill-rule:nonzero;fill:#253237;fill-opacity:1;stroke-width:2;stroke-linecap:round;stroke-linejoin:round;stroke:#253237;stroke-opacity:1;stroke-miterlimit:4;" d="M 20.693307 -292.669217 C 116.39188 -268.705178 145.978295 -188.674967 135.825376 -136.632818 C 121.389547 2.311334 90.283571 150.541692 59.177595 298.772051 C 59.177595 298.772051 -77.678568 298.772051 -77.678568 298.772051 C -111.896829 141.097902 -145.974391 -16.632526 -121.498203 -199.244358 C -111.947481 -231.132626 -94.410622 -256.064682 -61.790713 -267.872233 C -41.490505 -288.729615 -15.010748 -298.769973 20.693307 -292.669217 Z M 20.693307 -292.669217 " transform="matrix(0.694074,0,0,0.694074,307.164661,444.598888)"/><path style="fill-rule:nonzero;fill:#ffffff;fill-opacity:1;stroke-width:2;stroke-linecap:round;stroke-linejoin:round;stroke:#253237;stroke-opacity:1;stroke-miterlimit:4;" d="M 165.047255 -34.569334 C 165.047255 -34.569334 163.077454 28.689426 163.077454 28.689426 C 163.077454 28.689426 159.846979 132.289716 159.846979 132.289716 C 159.846979 132.289716 158.575051 172.92953 158.575051 172.92953 C 158.575051 172.92953 -128.914628 172.92953 -128.914628 172.92953 C -128.914628 172.92953 -133.996715 132.289716 -133.996715 132.289716 C -133.996715 132.289716 -157.094042 -52.297546 -157.094042 -52.297546 C -165.136459 -116.541206 -111.113253 -172.928174 -41.534244 -172.928174 C -41.534244 -172.928174 20.424447 -172.928174 20.424447 -172.928174 C 50.106538 -172.928174 77.655615 -164.632497 100.572846 -150.427416 C 124.503117 -135.597626 143.396325 -114.329401 154.393444 -89.329809 C 160.646156 -75.141612 164.35501 -59.749022 164.996603 -43.647304 C 165.126047 -40.647578 165.137303 -37.619712 165.047255 -34.569334 Z M 165.047255 -34.569334 " transform="matrix(0.694074,0,0,0.694074,269.82002,568.060076)"/><path style="fill-rule:nonzero;fill:#ffffff;fill-opacity:1;stroke-width:2;stroke-linecap:round;stroke-linejoin:round;stroke:#253237;stroke-opacity:1;stroke-miterlimit:4;" d="M 44.074788 -48.586841 C 44.074788 -48.586841 44.074788 21.751948 44.074788 21.751948 C 44.074788 21.751948 30.308691 88.984078 30.308691 88.984078 C 30.308691 88.984078 -44.071004 6.460662 -44.071004 6.460662 C -44.071004 6.460662 -43.46318 -88.984651 -43.46318 -88.984651 C -43.46318 -88.984651 44.074788 -48.586841 44.074788 -48.586841 Z M 44.074788 -48.586841 " transform="matrix(0.694074,0,0,0.694074,293.315093,448.152542)"/><path style="fill-rule:nonzero;fill:#253237;fill-opacity:1;stroke-width:2;stroke-linecap:round;stroke-linejoin:round;stroke:#253237;stroke-opacity:1;stroke-miterlimit:4;" d="M 42.957723 7.703755 C 42.957723 7.703755 42.957723 31.48207 42.957723 31.48207 C 6.62896 32.044871 -26.576261 6.803275 -42.953751 -32.046834 C -18.123 -10.823632 15.082222 6.493735 42.957723 7.703755 Z M 42.957723 7.703755 " transform="matrix(0.694074,0,0,0.694074,294.090418,413.098338)"/><path style="fill-rule:nonzero;fill:#ffffff;fill-opacity:1;stroke-width:2;stroke-linecap:round;stroke-linejoin:round;stroke:#253237;stroke-opacity:1;stroke-miterlimit:4;" d="M 72.586536 -52.881425 C 98.514749 104.443787 -11.439557 139.528761 -94.880338 60.016327 C -94.880338 60.016327 -98.5104 -12.444219 -98.5104 -12.444219 C -98.5104 -12.444219 -98.5104 -60.698722 -98.5104 -60.698722 C -64.984383 -139.530168 53.924077 -120.501888 72.586536 -52.881425 Z M 72.586536 -52.881425 " transform="matrix(0.694074,0,0,0.694074,329.182085,348.305176)"/><path style="fill-rule:nonzero;fill:#ffffff;fill-opacity:1;stroke-width:2;stroke-linecap:round;stroke-linejoin:round;stroke:#253237;stroke-opacity:1;stroke-miterlimit:4;" d="M 15.950623 -18.68421 C -3.927486 -30.317293 -15.538057 -28.336236 -17.676699 -10.776865 C -18.352059 -5.244537 -17.738607 0.377838 -16.275326 5.763838 C -9.904426 29.283265 3.884183 30.318817 18.35378 29.283265 C 18.35378 29.283265 15.950623 -18.68421 15.950623 -18.68421 Z M 15.950623 -18.68421 " transform="matrix(0.694074,0,0,0.694074,249.737684,352.63619)"/><path style="fill-rule:nonzero;fill:#253237;fill-opacity:1;stroke-width:2;stroke-linecap:round;stroke-linejoin:round;stroke:#253237;stroke-opacity:1;stroke-miterlimit:4;" d="M -22.489777 -24.906586 C -22.298424 20.685871 -45.097467 50.379218 -83.345379 69.396242 C -83.345379 69.396242 -94.235566 -24.906586 -94.235566 -24.906586 C -11.841594 -69.395954 34.330547 -54.68998 72.741672 -27.292859 C 87.875373 -16.498348 94.235018 2.884496 88.53385 20.578939 C 88.53385 20.578939 87.751557 23.004609 87.751557 23.004609 C 47.421284 18.94119 9.719288 6.14311 -22.489777 -24.906586 Z M -22.489777 -24.906586 " transform="matrix(0.694074,0,0,0.694074,318.65644,295.634665)"/><path style="fill-rule:nonzero;fill:#ffffff;fill-opacity:1;stroke-width:2;stroke-linecap:round;stroke-linejoin:round;stroke:#253237;stroke-opacity:1;stroke-miterlimit:4;" d="M 27.44599 54.06025 C 27.44599 54.06025 34.762394 45.781457 34.762394 45.781457 C 38.443109 39.089761 38.977769 26.792573 39.236657 14.000121 C 39.287309 11.484403 38.505017 9.002454 36.957316 7.021396 C 33.84503 3.042398 30.77214 2.288245 27.800554 11.157979 C 27.800554 11.157979 23.292523 21.170197 23.292523 21.170197 C 15.672206 -11.534132 3.386274 -38.340313 -14.477009 -58.111489 C -23.144134 -61.251915 -26.909269 -57.830089 -28.130546 -51.003321 C -28.130546 -51.003321 -15.57447 -0.300636 -15.57447 -0.300636 C -21.883462 -14.635161 -28.254362 -31.119584 -34.236929 -34.102426 C -36.111055 -34.293778 -37.456147 -33.58465 -38.339744 -32.093229 C -39.285249 -30.500504 -39.285249 -28.519446 -38.469188 -26.853557 C -32.17708 -13.976685 -26.976805 -0.942229 -22.964038 12.249812 C -24.427319 30.518311 -19.35086 46.636913 -9.715718 61.252839 C -9.715718 61.252839 27.44599 54.06025 27.44599 54.06025 Z M 27.44599 54.06025 " transform="matrix(0.694074,0,0,0.694074,395.391863,325.474289)"/><path style="fill-rule:nonzero;fill:#d4d4d4;fill-opacity:1;stroke-width:2;stroke-linecap:round;stroke-linejoin:round;stroke:#253237;stroke-opacity:1;stroke-miterlimit:4;" d="M -85.064328 150.69214 C -74.489309 143.64588 -51.262538 132.153497 -32.498775 120.064545 C 15.13102 91.01279 55.303709 56.079772 87.754778 15.057254 C 97.81202 -6.711864 99.506049 -28.300885 78.50234 -49.422783 C 41.441936 -84.749761 4.674189 -118.889231 -28.379076 -138.097607 C -54.093424 -150.693079 -72.468856 -145.565968 -75.693702 -116.474817 C -63.728566 -94.795748 -31.58141 -53.035961 0.0479702 -11.782695 C 0.0479702 -11.782695 -13.374818 -2.817285 -13.374818 -2.817285 C -18.119225 0.565145 -26.465555 4.245859 -31.851554 6.468921 C -42.330897 10.791227 -39.843319 9.097198 -50.851694 12.395208 C -50.851694 12.395208 -99.505785 23.313535 -99.505785 23.313535 " transform="matrix(0.694074,0,0,0.694074,437.341705,446.568685)"/><path style="fill-rule:nonzero;fill:#d4d4d4;fill-opacity:1;stroke-width:2;stroke-linecap:round;stroke-linejoin:round;stroke:#253237;stroke-opacity:1;stroke-miterlimit:4;" d="M 124.497448 25.374528 C 119.792437 35.06595 112.785572 43.085855 103.465598 49.462383 C 95.513229 66.38579 93.76292 94.77344 95.153037 128.974818 C 95.687698 141.806666 96.644458 155.443319 97.893875 169.614632 C 97.893875 169.614632 -94.797711 169.614632 -94.797711 169.614632 C -97.015145 156.996648 -98.652894 143.365623 -99.964219 128.974818 C -107.207459 49.974532 -104.736766 -51.965497 -134.01364 -135.445674 C -134.01364 -135.445674 -48.805666 -169.613284 -48.805666 -169.613284 C -48.805666 -169.613284 14.807658 -131.556724 14.807658 -131.556724 C 14.807658 -131.556724 39.345754 -154.327626 39.345754 -154.327626 C 47.686455 -153.826734 54.997232 -153.652266 61.99284 -153.742314 C 79.805471 -153.995574 95.637045 -156.027283 121.373906 -159.094545 C 117.563747 -144.917604 115.89223 -112.686028 115.813438 -92.644707 C 115.796554 -86.622743 115.914742 -81.715124 116.162375 -78.715398 C 120.495937 -67.487531 123.917763 -56.895628 126.416597 -46.962202 C 134.014402 -16.953687 133.355925 7.145424 124.497448 25.374528 Z M 124.497448 25.374528 " transform="matrix(0.694074,0,0,0.694074,296.597392,570.36086)"/><path style="fill-rule:nonzero;fill:#d4d4d4;fill-opacity:1;stroke-width:2;stroke-linecap:round;stroke-linejoin:round;stroke:#253237;stroke-opacity:1;stroke-miterlimit:4;" d="M 51.187017 44.49207 C 51.187017 44.49207 14.070333 25.531326 14.070333 25.531326 C 14.070333 25.531326 -4.288215 44.49207 -4.288215 44.49207 C -4.288215 44.49207 -51.186368 -26.80348 -51.186368 -26.80348 C -51.186368 -26.80348 -46.413821 -38.959967 -46.413821 -38.959967 C -46.413821 -38.959967 -23.187051 -44.492295 -23.187051 -44.492295 C -23.187051 -44.492295 -23.187051 -38.031347 -23.187051 -38.031347 C -23.187051 -38.031347 51.187017 44.49207 51.187017 44.49207 Z M 51.187017 44.49207 " transform="matrix(0.694074,0,0,0.694074,278.820088,479.033281)"/><path style="fill-rule:nonzero;fill:#d4d4d4;fill-opacity:1;stroke-width:2;stroke-linecap:round;stroke-linejoin:round;stroke:#253237;stroke-opacity:1;stroke-miterlimit:4;" d="M -20.620337 38.170084 C -20.620337 38.170084 -4.552387 21.657522 -4.552387 21.657522 C -4.552387 21.657522 10.485639 27.544413 10.485639 27.544413 C 10.485639 27.544413 20.621673 -22.966919 20.621673 -22.966919 C 20.621673 -22.966919 5.820024 -35.224711 5.820024 -35.224711 C 5.820024 -35.224711 -6.85424 -38.173784 -6.85424 -38.173784 C -6.85424 -38.173784 -6.85424 -26.889637 -6.85424 -26.889637 C -6.85424 -26.889637 -20.620337 38.170084 -20.620337 38.170084 Z M -20.620337 38.170084 " transform="matrix(0.694074,0,0,0.694074,328.663599,483.421206)"/><path style="fill:none;stroke-width:2;stroke-linecap:round;stroke-linejoin:round;stroke:#253237;stroke-opacity:1;stroke-miterlimit:4;" d="M 67.796457 -4.581961 C 48.813201 0.961623 28.37792 -3.467616 9.056983 -7.829319 C 5.652041 -8.600356 2.162679 -9.371392 -1.309799 -8.98306 C -6.194906 -8.442771 -10.432793 -5.696306 -14.732588 -3.439476 C -30.79491 5.002529 -49.553046 7.264987 -67.793405 9.36986 " transform="matrix(0.694074,0,0,0.694074,315.338785,607.863813)"/><path style="fill-rule:nonzero;fill:#ffffff;fill-opacity:1;stroke-width:2;stroke-linecap:round;stroke-linejoin:round;stroke:#253237;stroke-opacity:1;stroke-miterlimit:4;" d="M -33.897158 56.134213 C -33.897158 56.134213 -41.331751 46.572235 -41.331751 46.572235 C -44.899905 39.00257 -44.646645 25.512245 -44.050077 11.498516 C -43.931889 8.746423 -42.907592 6.084377 -41.078491 4.0189 C -37.403404 -0.117683 -33.987206 -0.731136 -31.347673 9.174151 C -31.347673 9.174151 -27.09853 20.435786 -27.09853 20.435786 C -16.523511 -14.823656 -1.243481 -43.301355 19.647668 -63.708496 C 29.350346 -66.545009 33.233668 -62.543499 34.100381 -54.996346 C 34.100381 -54.996346 16.889946 -0.387827 16.889946 -0.387827 C 24.774779 -15.639717 32.873476 -33.232856 39.621452 -36.080626 C 41.68693 -36.170674 43.105187 -35.298333 43.971899 -33.609932 C 44.90052 -31.803343 44.75982 -29.630934 43.758035 -27.863741 C 35.99139 -14.210204 29.406626 -0.309035 24.110675 13.851022 C 24.465239 33.937367 17.807311 51.215337 6.264275 66.546019 C 6.264275 66.546019 -33.897158 56.134213 -33.897158 56.134213 Z M -33.897158 56.134213 " transform="matrix(0.694074,0,0,0.694074,237.331818,303.526993)"/><path style="fill-rule:nonzero;fill:#d4d4d4;fill-opacity:1;stroke-width:2;stroke-linecap:round;stroke-linejoin:round;stroke:#253237;stroke-opacity:1;stroke-miterlimit:4;" d="M 58.712152 151.172763 C 49.454086 142.466241 28.450376 127.27626 11.954698 112.238234 C -30.187793 75.684351 -63.99521 34.560529 -89.186154 -11.285188 C -95.489518 -34.416283 -93.570369 -55.988421 -69.35307 -73.3283 C -26.940435 -102.008606 14.988192 -129.568939 50.771039 -143.025496 C 78.218812 -151.169217 95.491155 -143.064892 93.836522 -113.838669 C 78.438304 -94.450197 39.80206 -58.605442 1.756755 -23.182788 C 1.756755 -23.182788 13.508027 -12.112505 13.508027 -12.112505 C 17.627725 -7.992806 25.242414 -2.972627 30.189429 0.117147 C 39.80206 6.116599 37.62965 4.034237 47.940153 9.116325 C 47.940153 9.116325 94.106666 27.964509 94.106666 27.964509 " transform="matrix(0.694074,0,0,0.694074,177.975995,441.020254)"/><path style="fill-rule:nonzero;fill:#d4d4d4;fill-opacity:1;stroke-width:2;stroke-linecap:round;stroke-linejoin:round;stroke:#253237;stroke-opacity:1;stroke-miterlimit:4;" d="M -10.634511 8.933142 C -10.634511 8.933142 10.633714 -8.935769 10.633714 -8.935769 " transform="matrix(0.694074,0,0,0.694074,171.81473,431.131771)"/><path style="fill-rule:nonzero;fill:#ffffff;fill-opacity:1;stroke-width:2;stroke-linecap:round;stroke-linejoin:round;stroke:#253237;stroke-opacity:1;stroke-miterlimit:4;" d="M -44.072017 -41.261297 C -44.072017 -41.261297 30.307678 41.26212 30.307678 41.26212 C 30.307678 41.26212 44.073775 -23.797602 44.073775 -23.797602 C 44.073775 -23.797602 44.073775 -35.076121 44.073775 -35.076121 " transform="matrix(0.694074,0,0,0.694074,293.315796,481.275105)"/><path style="fill:none;stroke-width:2;stroke-linecap:round;stroke-linejoin:round;stroke:#253237;stroke-opacity:1;stroke-miterlimit:4;" d="M -2.593255 -31.967411 C -0.769782 -4.243865 3.749505 14.548039 10.368037 26.389358 C 6.32713 31.375769 -1.552075 31.96671 -10.371156 31.48833 " transform="matrix(0.694074,0,0,0.694074,343.756942,349.886962)"/><path style="fill:none;stroke-width:2;stroke-linecap:round;stroke-linejoin:round;stroke:#253237;stroke-opacity:1;stroke-miterlimit:4;" d="M 15.058293 -7.485932 C 1.697413 -6.107071 -7.690097 -0.405904 -15.062782 7.484557 " transform="matrix(0.694074,0,0,0.694074,303.767183,327.156727)"/><path style="fill:none;stroke-width:2;stroke-linecap:round;stroke-linejoin:round;stroke:#253237;stroke-opacity:1;stroke-miterlimit:4;" d="M 11.314811 5.313489 C 4.482414 -1.924124 -3.064739 -5.312182 -11.315392 -4.856314 " transform="matrix(0.694074,0,0,0.694074,364.576374,330.554234)"/><path style="fill-rule:nonzero;fill:#253237;fill-opacity:1;stroke-width:2;stroke-linecap:round;stroke-linejoin:round;stroke:#253237;stroke-opacity:1;stroke-miterlimit:4;" d="M -5.182921 0.00177616 C -5.182921 5.444056 -2.864184 9.85641 0.000470224 9.85641 C 2.865124 9.85641 5.183862 5.444056 5.183862 0.00177616 C 5.183862 -5.440503 2.865124 -9.852858 0.000470224 -9.852858 C -2.864184 -9.852858 -5.182921 -5.440503 -5.182921 0.00177616 Z M -5.182921 0.00177616 " transform="matrix(0.694074,0,0,0.694074,313.827799,345.799548)"/><path style="fill-rule:nonzero;fill:#253237;fill-opacity:1;stroke-width:2;stroke-linecap:round;stroke-linejoin:round;stroke:#253237;stroke-opacity:1;stroke-miterlimit:4;" d="M 7.767494 -2.364845 C 1.82995 -2.111584 -3.302789 -3.107741 -7.765796 -5.150706 C -6.640195 -0.71584 -2.407937 2.407702 2.730431 5.14854 C 2.730431 5.14854 7.767494 -2.364845 7.767494 -2.364845 Z M 7.767494 -2.364845 " transform="matrix(0.694074,0,0,0.694074,308.436911,340.602314)"/><path style="fill-rule:nonzero;fill:#253237;fill-opacity:1;stroke-width:2;stroke-linecap:round;stroke-linejoin:round;stroke:#253237;stroke-opacity:1;stroke-miterlimit:4;" d="M 5.185239 0.0024635 C 5.185239 5.444743 2.866501 9.85147 0.00184763 9.85147 C -2.862806 9.85147 -5.187172 5.444743 -5.187172 0.0024635 C -5.187172 -5.439816 -2.862806 -9.852171 0.00184763 -9.852171 C 2.866501 -9.852171 5.185239 -5.439816 5.185239 0.0024635 Z M 5.185239 0.0024635 " transform="matrix(0.694074,0,0,0.694074,359.186218,345.424071)"/><path style="fill-rule:nonzero;fill:#253237;fill-opacity:1;stroke-width:2;stroke-linecap:round;stroke-linejoin:round;stroke:#253237;stroke-opacity:1;stroke-miterlimit:4;" d="M -7.764122 -2.364157 C -1.826578 -2.110897 3.306161 -3.107054 7.76354 -5.150019 C 6.63794 -0.715152 2.411309 2.40839 -2.732686 5.149227 C -2.732686 5.149227 -7.764122 -2.364157 -7.764122 -2.364157 Z M -7.764122 -2.364157 " transform="matrix(0.694074,0,0,0.694074,364.576374,340.226837)"/><path style="fill-rule:nonzero;fill:#253237;fill-opacity:1;stroke-width:2;stroke-linecap:round;stroke-linejoin:round;stroke:#253237;stroke-opacity:1;stroke-miterlimit:4;" d="M 23.110436 9.650477 C 21.191287 15.880677 12.906866 9.048281 -0.515923 4.922954 C -13.938711 0.797627 -25.025878 1.034004 -23.106729 -5.196196 C -21.193208 -11.426396 -8.8116 -15.883775 4.611189 -11.758449 C 18.033977 -7.633122 25.023958 3.420277 23.110436 9.650477 Z M 23.110436 9.650477 " transform="matrix(0.694074,0,0,0.694074,317.393245,385.876075)"/><path style="fill-rule:nonzero;fill:#ffffff;fill-opacity:1;stroke-width:2;stroke-linecap:round;stroke-linejoin:round;stroke:#253237;stroke-opacity:1;stroke-miterlimit:4;" d="M 5.915762 -66.315924 C 6.25907 -68.634662 8.144452 -70.418739 10.480073 -70.626975 C 13.755571 -70.925259 16.445757 -68.066233 15.950493 -64.813247 C 15.950493 -64.813247 -6.291377 70.922943 -6.291377 70.922943 C -6.291377 70.922943 -16.444296 70.922943 -16.444296 70.922943 C -16.444296 70.922943 5.915762 -66.315924 5.915762 -66.315924 Z M 5.915762 -66.315924 " transform="matrix(0.694074,0,0,0.694074,701.671368,603.164866)"/><path style="fill-rule:nonzero;fill:#ffffff;fill-opacity:1;stroke-width:2;stroke-linecap:round;stroke-linejoin:round;stroke:#253237;stroke-opacity:1;stroke-miterlimit:4;" d="M 47.514692 45.726948 C 47.514692 45.726948 -44.165487 -54.986176 -44.165487 -54.986176 C -44.165487 -54.986176 -44.829591 -53.883087 -44.829591 -53.883087 C -44.829591 -53.883087 -49.275714 -46.521659 -49.275714 -46.521659 C -49.275714 -46.521659 39.995679 52.536832 39.995679 52.536832 C 42.196228 54.985014 46.113319 54.71487 47.959304 51.990916 C 49.276257 50.049255 49.090533 47.460373 47.514692 45.726948 Z M 47.514692 45.726948 " transform="matrix(0.694074,0,0,0.694074,678.302546,526.555091)"/><path style="fill-rule:nonzero;fill:#d4d4d4;fill-opacity:1;stroke-width:2;stroke-linecap:round;stroke-linejoin:round;stroke:#253237;stroke-opacity:1;stroke-miterlimit:4;" d="M -41.731541 6.640294 C -41.731541 6.640294 41.731752 6.640294 41.731752 6.640294 C 41.731752 6.640294 31.077941 -6.641794 3.292487 -6.641794 C -22.596329 -6.641794 -38.011431 0.972895 -41.731541 6.640294 Z M -41.731541 6.640294 " transform="matrix(0.694074,0,0,0.694074,691.292896,656.09427)"/><path style="fill-rule:nonzero;fill:#d4d4d4;fill-opacity:1;stroke-width:2;stroke-linecap:round;stroke-linejoin:round;stroke:#253237;stroke-opacity:1;stroke-miterlimit:4;" d="M 0.628405 5.19413 C 0.628405 5.19413 4.871919 -1.171142 4.871919 -1.171142 C 4.871919 -1.171142 -0.367752 -5.195165 -0.367752 -5.195165 C -0.367752 -5.195165 -4.870155 1.209503 -4.870155 1.209503 C -4.870155 1.209503 0.628405 5.19413 0.628405 5.19413 Z M 0.628405 5.19413 " transform="matrix(0.694074,0,0,0.694074,647.579466,473.703484)"/><path style="fill-rule:nonzero;fill:#ffffff;fill-opacity:1;stroke-width:2;stroke-linecap:round;stroke-linejoin:round;stroke:#253237;stroke-opacity:1;stroke-miterlimit:4;" d="M 39.247446 -30.171558 C 39.247446 -30.171558 20.973318 -43.41425 20.973318 -43.41425 C 20.973318 -43.41425 3.436459 -22.320493 3.436459 -22.320493 C -26.9829 -17.412874 -39.24632 1.71671 -39.24632 1.71671 C -39.24632 1.71671 15.210243 43.414589 15.210243 43.414589 C 33.85019 22.810468 25.019853 -6.623991 25.019853 -6.623991 C 25.019853 -6.623991 39.247446 -30.171558 39.247446 -30.171558 Z M 39.247446 -30.171558 " transform="matrix(0.694074,0,0,0.694074,625.763281,500.913945)"/><path style="fill:none;stroke-width:2;stroke-linecap:round;stroke-linejoin:round;stroke:#253237;stroke-opacity:1;stroke-miterlimit:4;" d="M -10.79061 -7.848469 C -10.79061 -7.848469 10.792784 7.848033 10.792784 7.848033 " transform="matrix(0.694074,0,0,0.694074,635.637918,490.869292)"/><path style="fill-rule:nonzero;fill:#ffffff;fill-opacity:1;stroke-width:2;stroke-linecap:round;stroke-linejoin:round;stroke:#253237;stroke-opacity:1;stroke-miterlimit:4;" d="M 84.539078 8.451177 C 84.539078 8.451177 -84.537406 8.451177 -84.537406 8.451177 C -84.537406 8.451177 -84.537406 -8.455346 -84.537406 -8.455346 C -84.537406 -8.455346 84.539078 -8.455346 84.539078 -8.455346 C 84.539078 -8.455346 84.539078 8.451177 84.539078 8.451177 Z M 84.539078 8.451177 " transform="matrix(0.694074,0,0,0.694074,361.276764,655.962384)"/><path style="fill-rule:nonzero;fill:#ffffff;fill-opacity:1;stroke-width:2;stroke-linecap:round;stroke-linejoin:round;stroke:#253237;stroke-opacity:1;stroke-miterlimit:4;" d="M -187.843218 123.338759 C -187.843218 123.338759 187.848533 123.338759 187.848533 123.338759 C 187.848533 123.338759 187.848533 -123.336637 187.848533 -123.336637 C 187.848533 -123.336637 -187.843218 -123.336637 -187.843218 -123.336637 C -187.843218 -123.336637 -187.843218 123.338759 -187.843218 123.338759 Z M -187.843218 123.338759 " transform="matrix(0.694074,0,0,0.694074,459.869249,532.112545)"/><path style="fill-rule:nonzero;fill:#ffffff;fill-opacity:1;stroke-width:2;stroke-linecap:round;stroke-linejoin:round;stroke:#253237;stroke-opacity:1;stroke-miterlimit:4;" d="M 6.708808 -123.337709 C 6.708808 -123.337709 -6.708353 -123.337709 -6.708353 -123.337709 C -6.708353 -123.337709 -6.708353 123.337687 -6.708353 123.337687 C -6.708353 123.337687 6.708808 123.337687 6.708808 123.337687 C 6.708808 123.337687 6.708808 -123.337709 6.708808 -123.337709 Z M 6.708808 -123.337709 " transform="matrix(0.694074,0,0,0.694074,324.83578,532.113289)"/><path style="fill-rule:nonzero;fill:#ffffff;fill-opacity:1;stroke-width:2;stroke-linecap:round;stroke-linejoin:round;stroke:#253237;stroke-opacity:1;stroke-miterlimit:4;" d="M -66.564633 -64.239303 C -66.564633 -64.239303 23.415888 -64.239303 23.415888 -64.239303 C 23.415888 -64.239303 66.560163 64.242391 66.560163 64.242391 C 66.560163 64.242391 -43.411026 64.242391 -43.411026 64.242391 C -43.411026 64.242391 -66.564633 -64.239303 -66.564633 -64.239303 Z M -66.564633 -64.239303 " transform="matrix(0.694074,0,0,0.694074,480.337489,614.286038)"/><path style="fill-rule:nonzero;fill:#ffffff;fill-opacity:1;stroke-width:2;stroke-linecap:round;stroke-linejoin:round;stroke:#253237;stroke-opacity:1;stroke-miterlimit:4;" d="M -4.343648 -64.239303 C -4.343648 -64.239303 -18.813245 -64.239303 -18.813245 -64.239303 C -18.813245 -64.239303 1.712084 64.242391 1.712084 64.242391 C 1.712084 64.242391 18.809959 64.242391 18.809959 64.242391 C 18.809959 64.242391 -4.343648 -64.239303 -4.343648 -64.239303 Z M -4.343648 -64.239303 " transform="matrix(0.694074,0,0,0.694074,437.151531,614.286038)"/><path style="fill-rule:nonzero;fill:#253237;fill-opacity:1;stroke-width:2;stroke-linecap:round;stroke-linejoin:round;stroke:#253237;stroke-opacity:1;stroke-miterlimit:4;" d="M -467.217555 20.321558 C -467.217555 20.321558 467.216763 20.321558 467.216763 20.321558 C 467.216763 20.321558 467.216763 -20.318256 467.216763 -20.318256 C 467.216763 -20.318256 -467.217555 -20.318256 -467.217555 -20.318256 C -467.217555 -20.318256 -467.217555 20.321558 -467.217555 20.321558 Z M -467.217555 20.321558 " transform="matrix(0.694074,0,0,0.694074,451.10379,673.981276)"/><path style="fill-rule:nonzero;fill:#253237;fill-opacity:1;stroke-width:2;stroke-linecap:round;stroke-linejoin:round;stroke:#253237;stroke-opacity:1;stroke-miterlimit:4;" d="M 59.2424 20.3246 C 59.2424 20.3246 -59.238331 20.3246 -59.238331 20.3246 C -59.238331 20.3246 -59.238331 -20.326469 -59.238331 -20.326469 C -59.238331 -20.326469 59.2424 -20.326469 59.2424 -20.326469 C 59.2424 -20.326469 59.2424 20.3246 59.2424 20.3246 Z M 59.2424 20.3246 " transform="matrix(0.694074,0,0,0.694074,734.272026,673.979164)"/></g></svg>