<svg xmlns="http://www.w3.org/2000/svg" xmlns:xlink="http://www.w3.org/1999/xlink" width="1180" zoomAndPan="magnify" viewBox="0 0 884.88 749.999995" height="1000" preserveAspectRatio="xMidYMid meet" version="1.2"><g id="dc1cb3344b"><path style="fill-rule:nonzero;fill:#92654f;fill-opacity:1;stroke-width:2;stroke-linecap:round;stroke-linejoin:round;stroke:#253237;stroke-opacity:1;stroke-miterlimit:4;" d="M 420.959154 0.00170676 C 420.959154 232.490089 232.487329 420.961914 -0.00105307 420.961914 C -232.489435 420.961914 -420.96126 232.490089 -420.96126 0.00170676 C -420.96126 -232.492361 -232.489435 -420.958501 -0.00105307 -420.958501 C 232.487329 -420.958501 420.959154 -232.492361 420.959154 0.00170676 Z M 420.959154 0.00170676 " transform="matrix(0.687064,0,0,0.687064,449.922599,416.16289)"/><path style="fill:none;stroke-width:2;stroke-linecap:round;stroke-linejoin:round;stroke:#253237;stroke-opacity:1;stroke-miterlimit:4;" d="M 4.52513 -420.957418 C 298.745853 -420.957418 298.745853 420.962997 4.52513 420.962997 C -298.746788 420.962997 -298.746788 -420.963103 4.52513 -420.957418 Z M 4.52513 -420.957418 " transform="matrix(0.687064,0,0,0.687064,449.082353,416.162146)"/><path style="fill:none;stroke-width:2;stroke-linecap:round;stroke-linejoin:round;stroke:#253237;stroke-opacity:1;stroke-miterlimit:4;" d="M 429.26318 5.003517 C 429.26318 5.003517 429.26318 846.923932 429.26318 846.923932 " transform="matrix(0.687064,0,0,0.687064,157.260171,123.499764)"/><path style="fill:none;stroke-width:2;stroke-linecap:round;stroke-linejoin:round;stroke:#253237;stroke-opacity:1;stroke-miterlimit:4;" d="M 846.920156 425.963724 C 846.920156 425.963724 4.999741 425.963724 4.999741 425.963724 " transform="matrix(0.687064,0,0,0.687064,157.260171,123.499764)"/><path style="fill-rule:nonzero;fill:#ffffff;fill-opacity:1;stroke-width:2;stroke-linecap:round;stroke-linejoin:round;stroke:#253237;stroke-opacity:1;stroke-miterlimit:4;" d="M 225.94683 171.25111 C 225.94683 171.25111 -225.947773 171.25111 -225.947773 171.25111 C -225.947773 171.25111 -225.947773 -171.250238 -225.947773 -171.250238 C -225.947773 -171.250238 225.94683 -171.250238 225.94683 -171.250238 C 225.94683 -171.250238 225.94683 171.25111 225.94683 171.25111 Z M 225.94683 171.25111 " transform="matrix(0.687064,0,0,0.687064,666.240558,270.683294)"/><path style="fill-rule:nonzero;fill:#ffffff;fill-opacity:1;stroke-width:2;stroke-linecap:round;stroke-linejoin:round;stroke:#253237;stroke-opacity:1;stroke-miterlimit:4;" d="M 225.94683 31.092948 C 225.94683 31.092948 -225.947773 31.092948 -225.947773 31.092948 C -225.947773 31.092948 -225.947773 -31.088541 -225.947773 -31.088541 C -225.947773 -31.088541 225.94683 -31.088541 225.94683 -31.088541 C 225.94683 -31.088541 225.94683 31.092948 225.94683 31.092948 Z M 225.94683 31.092948 " transform="matrix(0.687064,0,0,0.687064,666.240558,174.387158)"/><path style="fill-rule:nonzero;fill:#ffffff;fill-opacity:1;stroke-width:2;stroke-linecap:round;stroke-linejoin:round;stroke:#253237;stroke-opacity:1;stroke-miterlimit:4;" d="M 15.237381 15.242987 C 15.237381 15.242987 -15.24218 15.242987 -15.24218 15.242987 C -15.24218 15.242987 -15.24218 -15.24226 -15.24218 -15.24226 C -15.24218 -15.24226 15.237381 -15.24226 15.237381 -15.24226 C 15.237381 -15.24226 15.237381 15.242987 15.237381 15.242987 Z M 15.237381 15.242987 " transform="matrix(0.687064,0,0,0.687064,731.581727,174.386469)"/><path style="fill-rule:nonzero;fill:#ffffff;fill-opacity:1;stroke-width:2;stroke-linecap:round;stroke-linejoin:round;stroke:#253237;stroke-opacity:1;stroke-miterlimit:4;" d="M 15.242438 15.242987 C 15.242438 15.242987 -15.242809 15.242987 -15.242809 15.242987 C -15.242809 15.242987 -15.242809 -15.24226 -15.242809 -15.24226 C -15.242809 -15.24226 15.242438 -15.24226 15.242438 -15.24226 C 15.242438 -15.24226 15.242438 15.242987 15.242438 15.242987 Z M 15.242438 15.242987 " transform="matrix(0.687064,0,0,0.687064,764.968877,174.386469)"/><path style="fill-rule:nonzero;fill:#ffffff;fill-opacity:1;stroke-width:2;stroke-linecap:round;stroke-linejoin:round;stroke:#253237;stroke-opacity:1;stroke-miterlimit:4;" d="M 15.241774 15.242987 C 15.241774 15.242987 -15.237787 15.242987 -15.237787 15.242987 C -15.237787 15.242987 -15.237787 -15.24226 -15.237787 -15.24226 C -15.237787 -15.24226 15.241774 -15.24226 15.241774 -15.24226 C 15.241774 -15.24226 15.241774 15.242987 15.241774 15.242987 Z M 15.241774 15.242987 " transform="matrix(0.687064,0,0,0.687064,798.356052,174.386469)"/><path style="fill-rule:nonzero;fill:#92654f;fill-opacity:1;stroke-width:2;stroke-linecap:round;stroke-linejoin:round;stroke:#253237;stroke-opacity:1;stroke-miterlimit:4;" d="M -15.237787 -15.24226 C -15.237787 -15.24226 15.241774 15.242987 15.241774 15.242987 " transform="matrix(0.687064,0,0,0.687064,798.356052,174.386469)"/><path style="fill-rule:nonzero;fill:#92654f;fill-opacity:1;stroke-width:2;stroke-linecap:round;stroke-linejoin:round;stroke:#253237;stroke-opacity:1;stroke-miterlimit:4;" d="M -15.237787 15.237301 C -15.237787 15.237301 15.241774 -15.24226 15.241774 -15.24226 " transform="matrix(0.687064,0,0,0.687064,798.356052,174.386469)"/><path style="fill-rule:nonzero;fill:#253237;fill-opacity:1;stroke-width:2;stroke-linecap:round;stroke-linejoin:round;stroke:#253237;stroke-opacity:1;stroke-miterlimit:4;" d="M 22.883474 -95.53191 C -27.062982 -130.923678 -90.290588 -72.352434 -81.358786 -12.086933 C -94.361352 20.666798 -88.312061 55.296719 -72.648716 90.876106 C -29.809042 114.305741 69.117346 130.924237 94.360631 52.590457 C 88.942422 9.614333 83.376391 -31.849469 76.25824 -58.246895 C 70.476163 -84.644322 49.88924 -93.820597 22.883474 -95.53191 Z M 22.883474 -95.53191 " transform="matrix(0.687064,0,0,0.687064,663.121341,107.034964)"/><path style="fill-rule:nonzero;fill:#253237;fill-opacity:1;stroke-width:2;stroke-linecap:round;stroke-linejoin:round;stroke:#253237;stroke-opacity:1;stroke-miterlimit:4;" d="M 22.883474 -95.53191 C -27.062982 -130.923678 -90.290588 -72.352434 -81.358786 -12.086933 C -94.361352 20.666798 -88.312061 55.296719 -72.648716 90.876106 C -29.809042 114.305741 69.117346 130.924237 94.360631 52.590457 C 88.942422 9.614333 83.376391 -31.849469 76.25824 -58.246895 C 70.476163 -84.644322 49.88924 -93.820597 22.883474 -95.53191 Z M 22.883474 -95.53191 " transform="matrix(0.687064,0,0,0.687064,663.121341,107.034964)"/><path style="fill-rule:nonzero;fill:#d4d4d4;fill-opacity:1;stroke-width:2;stroke-linecap:butt;stroke-linejoin:miter;stroke:#253237;stroke-opacity:1;stroke-miterlimit:10;" d="M 4.387547 47.759011 C -5.937184 79.529164 -41.459717 67.987752 -31.134986 36.211914 C -31.134986 36.211914 3.722352 -79.53196 3.722352 -79.53196 C 3.722352 -79.53196 41.4622 -52.099786 41.4622 -52.099786 C 41.4622 -52.099786 4.387547 47.759011 4.387547 47.759011 Z M 4.387547 47.759011 " transform="matrix(0.687064,0,0,0.687064,594.059694,303.936507)"/><path style="fill-rule:nonzero;fill:#92654f;fill-opacity:1;stroke-width:2;stroke-linecap:round;stroke-linejoin:round;stroke:#253237;stroke-opacity:1;stroke-miterlimit:4;" d="M 11.884415 -59.733801 C -9.344961 -37.839231 -25.548421 -7.268703 -37.755027 30.220987 C -37.755027 30.220987 18.979825 59.734026 18.979825 59.734026 C 18.979825 59.734026 31.334252 13.545637 31.334252 13.545637 C 37.753097 -23.568815 36.274886 -52.916977 11.884415 -59.733801 Z M 11.884415 -59.733801 " transform="matrix(0.687064,0,0,0.687064,609.635429,238.091719)"/><path style="fill-rule:nonzero;fill:#253237;fill-opacity:1;stroke-width:2;stroke-linecap:round;stroke-linejoin:round;stroke:#253237;stroke-opacity:1;stroke-miterlimit:4;" d="M 84.228178 34.243458 C 84.228178 34.243458 -84.230953 34.243458 -84.230953 34.243458 C -79.819063 9.42658 -72.729339 -12.826172 -62.262472 -31.81549 C -62.262472 -31.81549 61.0885 -34.243166 61.0885 -34.243166 C 73.147285 -16.783227 80.401887 6.623666 84.228178 34.243458 Z M 84.228178 34.243458 " transform="matrix(0.687064,0,0,0.687064,671.157203,364.8124)"/><path style="fill-rule:nonzero;fill:#92654f;fill-opacity:1;stroke-width:2;stroke-linecap:round;stroke-linejoin:round;stroke:#253237;stroke-opacity:1;stroke-miterlimit:4;" d="M -83.925554 -100.242101 C -66.755572 -110.663484 -48.880597 -117.520106 -29.879908 -118.719731 C -29.879908 -118.719731 -14.097169 -103.244005 -14.097169 -103.244005 C -14.097169 -103.244005 26.792405 -129.112687 26.792405 -129.112687 C 26.792405 -129.112687 94.915162 -100.242101 94.915162 -100.242101 C 71.576494 -29.896342 57.874621 39.994582 54.906829 109.373818 C 13.784153 129.113612 -27.327152 128.101607 -68.438457 111.801495 C -64.754302 72.202512 -63.395486 37.146184 -71.104921 19.811325 C -92.10688 4.608499 -94.91548 -24.375795 -79.269191 -67.329178 C -78.569884 -76.147272 -80.730345 -87.70574 -83.925554 -100.242101 Z M -83.925554 -100.242101 " transform="matrix(0.687064,0,0,0.687064,675.4005,266.138354)"/><path style="fill-rule:nonzero;fill:#d4d4d4;fill-opacity:1;stroke-width:2;stroke-linecap:round;stroke-linejoin:round;stroke:#253237;stroke-opacity:1;stroke-miterlimit:4;" d="M -28.33323 -17.91415 C -28.33323 -17.91415 -28.33323 29.90027 -28.33323 29.90027 C -28.33323 29.90027 -12.556176 45.375996 -12.556176 45.375996 C -12.556176 45.375996 28.333397 19.507314 28.333397 19.507314 C 28.333397 19.507314 27.946788 -45.374751 27.946788 -45.374751 C 27.946788 -45.374751 -28.33323 -17.91415 -28.33323 -17.91415 Z M -28.33323 -17.91415 " transform="matrix(0.687064,0,0,0.687064,674.341739,164.026916)"/><path style="fill-rule:nonzero;fill:#253237;fill-opacity:1;stroke-width:2;stroke-linecap:round;stroke-linejoin:round;stroke:#253237;stroke-opacity:1;stroke-miterlimit:4;" d="M -27.61528 5.238165 C -27.61528 5.238165 -27.61528 21.401827 -27.61528 21.401827 C -4.259556 21.782751 17.083528 4.624139 27.61862 -21.784658 C 11.653947 -7.360736 -9.694822 4.413778 -27.61528 5.238165 Z M -27.61528 5.238165 " transform="matrix(0.687064,0,0,0.687064,673.848462,150.822921)"/><path style="fill-rule:nonzero;fill:#d4d4d4;fill-opacity:1;stroke-width:2;stroke-linecap:round;stroke-linejoin:round;stroke:#253237;stroke-opacity:1;stroke-miterlimit:4;" d="M -28.33323 -17.91415 C -28.33323 -17.91415 -28.33323 29.90027 -28.33323 29.90027 C -28.33323 29.90027 -12.556176 45.375996 -12.556176 45.375996 C -12.556176 45.375996 28.333397 19.507314 28.333397 19.507314 C 28.333397 19.507314 27.946788 -45.374751 27.946788 -45.374751 C 27.946788 -45.374751 -28.33323 -17.91415 -28.33323 -17.91415 Z M -28.33323 -17.91415 " transform="matrix(0.687064,0,0,0.687064,674.341739,164.026916)"/><path style="fill-rule:nonzero;fill:#92654f;fill-opacity:1;stroke-width:2;stroke-linecap:round;stroke-linejoin:round;stroke:#253237;stroke-opacity:1;stroke-miterlimit:4;" d="M 1.463764 -16.199563 C -13.136406 -10.184384 -17.241283 -3.327762 -14.102928 4.410101 C -12.181255 9.146059 -8.116176 12.653966 -3.34042 13.972985 C 4.721512 16.195986 11.305234 12.460662 17.240817 6.092986 C 17.240817 6.092986 1.463764 -9.382739 1.463764 -9.382739 C 1.463764 -9.382739 1.463764 -16.199563 1.463764 -16.199563 Z M 1.463764 -16.199563 " transform="matrix(0.687064,0,0,0.687064,653.8693,191.016854)"/><path style="fill-rule:nonzero;fill:#92654f;fill-opacity:1;stroke-width:2;stroke-linecap:round;stroke-linejoin:round;stroke:#253237;stroke-opacity:1;stroke-miterlimit:4;" d="M -28.492165 7.912004 C -28.492165 7.912004 12.397408 -17.956677 12.397408 -17.956677 C 12.397408 -17.956677 12.397408 -23.215695 12.397408 -23.215695 C 28.492845 -9.860633 27.95273 2.891775 11.675359 15.069954 C -6.904608 23.211482 -19.429599 19.078178 -28.492165 7.912004 Z M -28.492165 7.912004 " transform="matrix(0.687064,0,0,0.687064,685.290782,189.767072)"/><path style="fill:none;stroke-width:2;stroke-linecap:round;stroke-linejoin:round;stroke:#253237;stroke-opacity:1;stroke-miterlimit:4;" d="M -39.937035 -3.113793 C -28.75949 0.649958 -16.717761 -2.357631 -5.335541 -5.319737 C -3.328586 -5.842796 -1.276148 -6.371541 0.770605 -6.104326 C 3.64743 -5.734773 6.149017 -3.87564 8.679031 -2.33489 C 18.139577 3.401704 29.192042 4.936769 39.937495 6.369496 " transform="matrix(0.687064,0,0,0.687064,660.419764,282.213593)"/><path style="fill-rule:nonzero;fill:#d4d4d4;fill-opacity:1;stroke-width:2;stroke-linecap:butt;stroke-linejoin:miter;stroke:#253237;stroke-opacity:1;stroke-miterlimit:10;" d="M -11.866742 45.844766 C -7.75618 79.002163 29.318474 74.408339 25.207912 41.250943 C 25.207912 41.250943 12.944451 -79.001472 12.944451 -79.001472 C 12.944451 -79.001472 -29.31531 -59.227565 -29.31531 -59.227565 C -29.31531 -59.227565 -11.866742 45.844766 -11.866742 45.844766 Z M -11.866742 45.844766 " transform="matrix(0.687064,0,0,0.687064,742.606335,306.857185)"/><path style="fill-rule:nonzero;fill:#92654f;fill-opacity:1;stroke-width:2;stroke-linecap:round;stroke-linejoin:round;stroke:#253237;stroke-opacity:1;stroke-miterlimit:4;" d="M 0.668243 -57.974093 C 17.354964 -32.452222 27.463649 0.642634 32.336058 39.764041 C 32.336058 39.764041 -28.96419 57.974456 -28.96419 57.974456 C -28.96419 57.974456 -32.335647 10.279429 -32.335647 10.279429 C -31.596542 -27.375138 -24.575042 -55.910284 0.668243 -57.974093 Z M 0.668243 -57.974093 " transform="matrix(0.687064,0,0,0.687064,740.154156,237.097532)"/><path style="fill-rule:nonzero;fill:#253237;fill-opacity:1;stroke-width:2;stroke-linecap:round;stroke-linejoin:round;stroke:#253237;stroke-opacity:1;stroke-miterlimit:4;" d="M -27.61528 5.238165 C -27.61528 5.238165 -27.61528 21.401827 -27.61528 21.401827 C -4.259556 21.782751 17.083528 4.624139 27.61862 -21.784658 C 11.653947 -7.360736 -9.694822 4.413778 -27.61528 5.238165 Z M -27.61528 5.238165 " transform="matrix(0.687064,0,0,0.687064,673.848462,150.822921)"/><path style="fill-rule:nonzero;fill:#d4d4d4;fill-opacity:1;stroke-width:2;stroke-linecap:round;stroke-linejoin:round;stroke:#253237;stroke-opacity:1;stroke-miterlimit:4;" d="M 29.791842 25.033733 C 27.847427 12.144876 23.503762 -1.085107 18.040069 -14.468597 C 17.300964 -16.282247 16.226419 -17.970818 14.776636 -19.278466 C 12.434241 -21.393444 10.21124 -21.632232 8.07352 -20.318898 C 4.980649 -18.414281 3.798081 -14.474282 4.883997 -11.006173 C 4.883997 -11.006173 9.961081 5.174545 9.961081 5.174545 C 5.577619 0.938904 1.853665 -3.7402 -1.392712 -8.749059 C -5.577184 -15.207702 -7.470431 -22.797744 -6.936001 -29.870412 C -6.839349 -31.121205 -6.748382 -32.343571 -6.657415 -33.543196 C -6.276492 -38.603224 -11.33652 -42.474998 -16.03268 -40.553325 C -17.925927 -39.780107 -19.722521 -38.631651 -21.416777 -37.107957 C -27.295506 -31.843254 -29.791408 -23.764266 -28.586098 -15.963863 C -27.022606 -5.866549 -23.111034 4.662857 -15.248092 15.919998 C -15.248092 15.919998 6.600995 42.476616 6.600995 42.476616 " transform="matrix(0.687064,0,0,0.687064,525.937351,251.183038)"/><path style=" stroke:none;fill-rule:nonzero;fill:#d4d4d4;fill-opacity:1;" d="M 591.671875 329.859375 C 602.808594 342.886719 583.101562 359.734375 571.964844 346.707031 C 571.964844 346.707031 530.472656 280.367188 530.472656 280.367188 C 530.472656 280.367188 546.40625 268.382812 546.40625 268.382812 C 546.40625 268.382812 591.671875 329.859375 591.671875 329.859375 Z M 591.671875 329.859375 "/><path style="fill:none;stroke-width:2;stroke-linecap:round;stroke-linejoin:round;stroke:#253237;stroke-opacity:1;stroke-miterlimit:4;" d="M 22.961683 31.187546 C 22.961683 31.187546 -22.965177 -31.187247 -22.965177 -31.187247 " transform="matrix(0.687064,0,0,0.687064,562.184794,289.810444)"/><path style="fill:none;stroke-width:2;stroke-linecap:round;stroke-linejoin:round;stroke:#253237;stroke-opacity:1;stroke-miterlimit:4;" d="M 47.279918 33.618424 C 40.957726 49.810513 23.861655 54.222402 13.110517 42.33418 C 13.110517 42.33418 -47.280063 -54.221386 -47.280063 -54.221386 " transform="matrix(0.687064,0,0,0.687064,562.957081,317.620745)"/><path style="fill-rule:nonzero;fill:#d4d4d4;fill-opacity:1;stroke-width:2;stroke-linecap:round;stroke-linejoin:round;stroke:#253237;stroke-opacity:1;stroke-miterlimit:4;" d="M -33.879995 18.476929 C -29.52496 6.190726 -22.753619 -5.970397 -14.845193 -18.074666 C -13.776334 -19.717754 -12.406146 -21.173222 -10.728946 -22.185228 C -8.028369 -23.811259 -5.799683 -23.62364 -3.95192 -21.929384 C -1.274085 -19.47328 -0.859049 -15.379775 -2.587418 -12.184566 C -2.587418 -12.184566 -10.643665 2.739673 -10.643665 2.739673 C -5.538153 -0.5863 -0.989814 -4.47513 3.149175 -8.778997 C 8.487789 -14.322286 11.77965 -21.417696 12.598351 -28.461937 C 12.740487 -29.707045 12.882622 -30.929411 13.024758 -32.117665 C 13.610357 -37.160636 19.307152 -40.003349 23.554164 -37.223176 C 25.271162 -36.108833 26.811912 -34.636308 28.187785 -32.822657 C 32.957856 -26.534578 33.878895 -18.125835 31.218117 -10.70067 C 27.767064 -1.080932 21.922447 8.516065 12.069607 18.073264 C 12.069607 18.073264 -14.418787 40.001946 -14.418787 40.001946 " transform="matrix(0.687064,0,0,0.687064,820.453503,268.152825)"/><path style=" stroke:none;fill-rule:nonzero;fill:#d4d4d4;fill-opacity:1;" d="M 741.070312 332.621094 C 727.660156 343.296875 743.8125 363.578125 757.21875 352.902344 C 757.21875 352.902344 810.546875 295.636719 810.546875 295.636719 C 810.546875 295.636719 797.175781 280.847656 797.175781 280.847656 C 797.175781 280.847656 741.070312 332.621094 741.070312 332.621094 Z M 741.070312 332.621094 "/><path style="fill:none;stroke-width:2;stroke-linecap:round;stroke-linejoin:round;stroke:#253237;stroke-opacity:1;stroke-miterlimit:4;" d="M -28.463072 26.264611 C -28.463072 26.264611 28.465084 -26.263027 28.465084 -26.263027 " transform="matrix(0.687064,0,0,0.687064,777.61845,298.892034)"/><path style="fill:none;stroke-width:2;stroke-linecap:round;stroke-linejoin:round;stroke:#253237;stroke-opacity:1;stroke-miterlimit:4;" d="M -54.751665 21.815642 C -51.618996 38.911714 -35.67138 46.490385 -22.862118 36.859276 C -22.862118 36.859276 54.755298 -46.489049 54.755298 -46.489049 " transform="matrix(0.687064,0,0,0.687064,772.926486,327.577666)"/><path style="fill-rule:nonzero;fill:#d4d4d4;fill-opacity:1;stroke-width:2;stroke-linecap:round;stroke-linejoin:round;stroke:#253237;stroke-opacity:1;stroke-miterlimit:4;" d="M -46.668371 -35.944066 C -63.338036 70.998771 7.354533 94.849127 61.007885 40.797795 C 61.007885 40.797795 63.338909 -8.460723 63.338909 -8.460723 C 63.338909 -8.460723 63.338909 -41.259938 63.338909 -41.259938 C 41.779779 -94.845064 -34.672126 -81.910723 -46.668371 -35.944066 Z M -46.668371 -35.944066 " transform="matrix(0.687064,0,0,0.687064,651.513372,107.223214)"/><path style="fill-rule:nonzero;fill:#d4d4d4;fill-opacity:1;stroke-width:2;stroke-linecap:round;stroke-linejoin:round;stroke:#253237;stroke-opacity:1;stroke-miterlimit:4;" d="M -10.256104 -12.702726 C 2.530416 -20.611152 9.989693 -19.263706 11.365566 -7.324314 C 11.797658 -3.566249 11.405364 0.260042 10.467269 3.921455 C 6.368077 19.903184 -2.495499 20.608177 -11.796854 19.903184 C -11.796854 19.903184 -10.256104 -12.702726 -10.256104 -12.702726 Z M -10.256104 -12.702726 " transform="matrix(0.687064,0,0,0.687064,702.077849,110.137741)"/><path style="fill-rule:nonzero;fill:#253237;fill-opacity:1;stroke-width:2;stroke-linecap:round;stroke-linejoin:round;stroke:#253237;stroke-opacity:1;stroke-miterlimit:4;" d="M 15.54379 -13.557867 C 15.418711 17.433383 30.081421 37.61664 54.670882 50.545295 C 54.670882 50.545295 61.675326 -13.557867 61.675326 -13.557867 C -3.121458 -50.547239 -33.077961 -27.339336 -61.675646 -1.777667 C -61.675646 -1.777667 -55.336398 19.013931 -55.336398 19.013931 C -29.405176 16.250814 -5.168211 7.546429 15.54379 -13.557867 Z M 15.54379 -13.557867 " transform="matrix(0.687064,0,0,0.687064,657.46886,69.463558)"/><path style="fill:none;stroke-width:2;stroke-linecap:round;stroke-linejoin:round;stroke:#253237;stroke-opacity:1;stroke-miterlimit:4;" d="M 1.667242 -21.73308 C 0.496045 -2.885898 -2.409207 9.889251 -6.66759 17.939812 C -4.069351 21.328325 0.996362 21.731991 6.664731 21.402236 " transform="matrix(0.687064,0,0,0.687064,642.23731,108.287484)"/><path style="fill:none;stroke-width:2;stroke-linecap:round;stroke-linejoin:round;stroke:#253237;stroke-opacity:1;stroke-miterlimit:4;" d="M -10.400331 -2.744975 C -1.792599 -3.495451 4.813865 -0.857414 10.402637 3.491935 " transform="matrix(0.687064,0,0,0.687064,665.188661,90.956286)"/><path style="fill:none;stroke-width:2;stroke-linecap:round;stroke-linejoin:round;stroke:#253237;stroke-opacity:1;stroke-miterlimit:4;" d="M -7.75373 2.655932 C -2.579994 -1.329551 2.588057 -2.654255 7.750423 -1.329551 " transform="matrix(0.687064,0,0,0.687064,632.331214,90.698643)"/><path style="fill-rule:nonzero;fill:#253237;fill-opacity:1;stroke-width:2;stroke-linecap:round;stroke-linejoin:round;stroke:#253237;stroke-opacity:1;stroke-miterlimit:4;" d="M 3.335909 0.00277013 C 3.335909 3.698296 1.840642 6.7002 -0.00143526 6.7002 C -1.843513 6.7002 -3.333094 3.698296 -3.333094 0.00277013 C -3.333094 -3.698441 -1.843513 -6.700345 -0.00143526 -6.700345 C 1.840642 -6.700345 3.335909 -3.698441 3.335909 0.00277013 Z M 3.335909 0.00277013 " transform="matrix(0.687064,0,0,0.687064,661.286142,105.537159)"/><path style="fill-rule:nonzero;fill:#253237;fill-opacity:1;stroke-width:2;stroke-linecap:round;stroke-linejoin:round;stroke:#253237;stroke-opacity:1;stroke-miterlimit:4;" d="M -4.995507 -1.610355 C -1.174902 -1.434107 2.122644 -2.116358 4.993784 -3.497916 C 4.271735 -0.484641 1.548417 1.636023 -1.754815 3.500842 C -1.754815 3.500842 -4.995507 -1.610355 -4.995507 -1.610355 Z M -4.995507 -1.610355 " transform="matrix(0.687064,0,0,0.687064,664.717389,102.04001)"/><path style="fill-rule:nonzero;fill:#253237;fill-opacity:1;stroke-width:2;stroke-linecap:round;stroke-linejoin:round;stroke:#253237;stroke-opacity:1;stroke-miterlimit:4;" d="M -3.330392 0.000207845 C -3.330392 3.701419 -1.840811 6.697638 0.00126655 6.697638 C 1.843344 6.697638 3.332925 3.701419 3.332925 0.000207845 C 3.332925 -3.701004 1.843344 -6.697222 0.00126655 -6.697222 C -1.840811 -6.697222 -3.330392 -3.701004 -3.330392 0.000207845 Z M -3.330392 0.000207845 " transform="matrix(0.687064,0,0,0.687064,632.417099,105.285013)"/><path style="fill-rule:nonzero;fill:#253237;fill-opacity:1;stroke-width:2;stroke-linecap:round;stroke-linejoin:round;stroke:#253237;stroke-opacity:1;stroke-miterlimit:4;" d="M 4.995269 -1.607211 C 1.174663 -1.436648 -2.122883 -2.113214 -4.994022 -3.500457 C -4.271973 -0.487182 -1.548655 1.639167 1.754577 3.498301 C 1.754577 3.498301 4.995269 -1.607211 4.995269 -1.607211 Z M 4.995269 -1.607211 " transform="matrix(0.687064,0,0,0.687064,628.9859,101.78785)"/><path style="fill:none;stroke-width:2;stroke-linecap:round;stroke-linejoin:round;stroke:#253237;stroke-opacity:1;stroke-miterlimit:4;" d="M 1.667242 -21.73308 C 0.496045 -2.885898 -2.409207 9.889251 -6.66759 17.939812 C -4.069351 21.328325 0.996362 21.731991 6.664731 21.402236 " transform="matrix(0.687064,0,0,0.687064,642.23731,108.287484)"/><path style="fill-rule:nonzero;fill:#253237;fill-opacity:1;stroke-width:2;stroke-linecap:round;stroke-linejoin:round;stroke:#253237;stroke-opacity:1;stroke-miterlimit:4;" d="M 16.293224 -7.282845 C 17.123296 -4.366222 11.926818 5.094325 2.926791 7.64708 C -6.073236 10.199836 -15.465558 4.883964 -16.29563 1.967341 C -17.125702 -0.949282 -9.251388 -0.983394 -0.251361 -3.53615 C 8.748666 -6.094591 15.468838 -10.199467 16.293224 -7.282845 Z M 16.293224 -7.282845 " transform="matrix(0.687064,0,0,0.687064,659.532076,132.839717)"/><path style="fill-rule:nonzero;fill:#ffffff;fill-opacity:1;stroke-width:2;stroke-linecap:round;stroke-linejoin:round;stroke:#253237;stroke-opacity:1;stroke-miterlimit:4;" d="M 225.942415 171.249312 C 225.942415 171.249312 -225.946502 171.249312 -225.946502 171.249312 C -225.946502 171.249312 -225.946502 -171.246351 -225.946502 -171.246351 C -225.946502 -171.246351 225.942415 -171.246351 225.942415 -171.246351 C 225.942415 -171.246351 225.942415 171.249312 225.942415 171.249312 Z M 225.942415 171.249312 " transform="matrix(0.687064,0,0,0.687064,197.809998,546.99703)"/><path style="fill-rule:nonzero;fill:#ffffff;fill-opacity:1;stroke-width:2;stroke-linecap:round;stroke-linejoin:round;stroke:#253237;stroke-opacity:1;stroke-miterlimit:4;" d="M 225.942415 31.092152 C 225.942415 31.092152 -225.946502 31.092152 -225.946502 31.092152 C -225.946502 31.092152 -225.946502 -31.089337 -225.946502 -31.089337 C -225.946502 -31.089337 225.942415 -31.089337 225.942415 -31.089337 C 225.942415 -31.089337 225.942415 31.092152 225.942415 31.092152 Z M 225.942415 31.092152 " transform="matrix(0.687064,0,0,0.687064,197.809998,450.700205)"/><path style="fill-rule:nonzero;fill:#ffffff;fill-opacity:1;stroke-width:2;stroke-linecap:round;stroke-linejoin:round;stroke:#253237;stroke-opacity:1;stroke-miterlimit:4;" d="M 15.238649 15.241188 C 15.238649 15.241188 -15.240912 15.241188 -15.240912 15.241188 C -15.240912 15.241188 -15.240912 -15.238373 -15.240912 -15.238373 C -15.240912 -15.238373 15.238649 -15.238373 15.238649 -15.238373 C 15.238649 -15.238373 15.238649 15.241188 15.238649 15.241188 Z M 15.238649 15.241188 " transform="matrix(0.687064,0,0,0.687064,263.151168,450.700205)"/><path style="fill-rule:nonzero;fill:#ffffff;fill-opacity:1;stroke-width:2;stroke-linecap:round;stroke-linejoin:round;stroke:#253237;stroke-opacity:1;stroke-miterlimit:4;" d="M 15.237992 15.241188 C 15.237992 15.241188 -15.241569 15.241188 -15.241569 15.241188 C -15.241569 15.241188 -15.241569 -15.238373 -15.241569 -15.238373 C -15.241569 -15.238373 15.237992 -15.238373 15.237992 -15.238373 C 15.237992 -15.238373 15.237992 15.241188 15.237992 15.241188 Z M 15.237992 15.241188 " transform="matrix(0.687064,0,0,0.687064,296.538338,450.700205)"/><path style="fill-rule:nonzero;fill:#ffffff;fill-opacity:1;stroke-width:2;stroke-linecap:round;stroke-linejoin:round;stroke:#253237;stroke-opacity:1;stroke-miterlimit:4;" d="M 15.237293 15.241188 C 15.237293 15.241188 -15.242268 15.241188 -15.242268 15.241188 C -15.242268 15.241188 -15.242268 -15.238373 -15.242268 -15.238373 C -15.242268 -15.238373 15.237293 -15.238373 15.237293 -15.238373 C 15.237293 -15.238373 15.237293 15.241188 15.237293 15.241188 Z M 15.237293 15.241188 " transform="matrix(0.687064,0,0,0.687064,329.925537,450.700205)"/><path style="fill-rule:nonzero;fill:#92654f;fill-opacity:1;stroke-width:2;stroke-linecap:round;stroke-linejoin:round;stroke:#253237;stroke-opacity:1;stroke-miterlimit:4;" d="M -15.242268 -15.238373 C -15.242268 -15.238373 15.242978 15.241188 15.242978 15.241188 " transform="matrix(0.687064,0,0,0.687064,329.925537,450.700205)"/><path style="fill-rule:nonzero;fill:#92654f;fill-opacity:1;stroke-width:2;stroke-linecap:round;stroke-linejoin:round;stroke:#253237;stroke-opacity:1;stroke-miterlimit:4;" d="M -15.242268 15.241188 C -15.242268 15.241188 15.242978 -15.238373 15.242978 -15.238373 " transform="matrix(0.687064,0,0,0.687064,329.925537,450.700205)"/><path style="fill-rule:nonzero;fill:#d4d4d4;fill-opacity:1;stroke-width:2;stroke-linecap:round;stroke-linejoin:round;stroke:#253237;stroke-opacity:1;stroke-miterlimit:4;" d="M 36.700724 118.303271 C 36.700724 118.303271 -11.921027 118.303271 -11.921027 118.303271 C -11.921027 118.303271 -20.898312 65.923454 -20.898312 65.923454 C -20.898312 65.923454 -36.47069 -24.884147 -36.47069 -24.884147 C -36.47069 -24.884147 -36.47069 -25.077452 -36.47069 -25.077452 C -36.698107 -64.4945 -20.170578 -108.766902 4.072072 -118.307044 C 4.259691 -117.65322 4.44731 -116.993711 4.629244 -116.322831 C 10.377208 -95.752965 15.738564 -63.783822 20.861131 -24.906889 C 26.347566 16.733161 31.572471 66.304378 36.700724 118.303271 Z M 36.700724 118.303271 " transform="matrix(0.687064,0,0,0.687064,263.268632,583.374343)"/><path style="fill-rule:nonzero;fill:#d4d4d4;fill-opacity:1;stroke-width:2;stroke-linecap:round;stroke-linejoin:round;stroke:#253237;stroke-opacity:1;stroke-miterlimit:4;" d="M 113.362787 -98.302012 C 113.362787 -98.302012 113.084201 -96.317799 113.084201 -96.317799 C 113.084201 -96.317799 100.297681 -4.981453 100.297681 -4.981453 C 100.297681 -4.981453 87.556645 85.928486 87.556645 85.928486 C 87.556645 85.928486 80.216762 138.308303 80.216762 138.308303 C 80.216762 138.308303 -68.024999 138.308303 -68.024999 138.308303 C -68.024999 138.308303 -70.202517 126.761206 -70.202517 126.761206 C -70.202517 126.761206 -113.36626 -102.418259 -113.36626 -102.418259 C -90.584764 -117.467578 -66.535418 -128.900967 -41.786765 -138.310345 C -41.786765 -138.310345 51.516738 -130.708932 51.516738 -130.708932 C 71.387297 -122.698169 92.144783 -111.33869 113.362787 -98.302012 Z M 113.362787 -98.302012 " transform="matrix(0.687064,0,0,0.687064,188.753146,569.629608)"/><path style="fill-rule:nonzero;fill:#ffffff;fill-opacity:1;stroke-width:2;stroke-linecap:butt;stroke-linejoin:miter;stroke:#253237;stroke-opacity:1;stroke-miterlimit:10;" d="M -31.423592 -47.94443 C -31.423592 -47.94443 -28.421688 -4.621494 -28.421688 -4.621494 C -28.421688 -4.621494 14.639718 47.945941 14.639718 47.945941 C 14.639718 47.945941 31.423091 16.59651 31.423091 16.59651 C 31.423091 16.59651 31.423091 -25.202731 31.423091 -25.202731 C 31.423091 -25.202731 -31.423592 -47.94443 -31.423592 -47.94443 Z M -31.423592 -47.94443 " transform="matrix(0.687064,0,0,0.687064,189.789234,469.147918)"/><path style="fill-rule:nonzero;fill:#d4d4d4;fill-opacity:1;stroke-width:2;stroke-linecap:round;stroke-linejoin:round;stroke:#253237;stroke-opacity:1;stroke-miterlimit:4;" d="M 35.098431 27.760968 C 35.098431 27.760968 12.822937 15.412226 12.822937 15.412226 C 12.822937 15.412226 0.366172 33.145065 0.366172 33.145065 C 0.366172 33.145065 -35.093821 -14.356658 -35.093821 -14.356658 C -35.093821 -14.356658 -17.571342 -33.1413 -17.571342 -33.1413 C -17.571342 -33.1413 -8.548574 -33.1413 -8.548574 -33.1413 C -8.548574 -33.1413 -7.96866 -24.806468 -7.96866 -24.806468 C -7.96866 -24.806468 35.098431 27.760968 35.098431 27.760968 Z M 35.098431 27.760968 " transform="matrix(0.687064,0,0,0.687064,175.736698,483.016285)"/><path style="fill-rule:nonzero;fill:#d4d4d4;fill-opacity:1;stroke-width:2;stroke-linecap:round;stroke-linejoin:round;stroke:#253237;stroke-opacity:1;stroke-miterlimit:4;" d="M -17.677587 19.527986 C -17.677587 19.527986 -2.201862 9.709258 -2.201862 9.709258 C -2.201862 9.709258 14.934008 27.021375 14.934008 27.021375 C 14.934008 27.021375 17.680068 -12.878934 17.680068 -12.878934 C 17.680068 -12.878934 -0.894214 -27.018585 -0.894214 -27.018585 C -0.894214 -27.018585 -0.894214 -11.821445 -0.894214 -11.821445 C -0.894214 -11.821445 -17.677587 19.527986 -17.677587 19.527986 Z M -17.677587 19.527986 " transform="matrix(0.687064,0,0,0.687064,211.997195,488.67287)"/><path style="fill-rule:nonzero;fill:#92654f;fill-opacity:1;stroke-width:2;stroke-linecap:round;stroke-linejoin:round;stroke:#253237;stroke-opacity:1;stroke-miterlimit:4;" d="M 14.613642 -13.27078 C 15.921289 -1.541749 14.642069 8.339519 10.679328 16.310484 C 10.679328 16.310484 -8.002977 16.310484 -8.002977 16.310484 C -13.39276 8.02682 -15.365602 -3.474794 -15.922774 -16.306797 C -15.922774 -16.306797 2.924409 -5.856986 2.924409 -5.856986 C 2.924409 -5.856986 14.613642 -13.27078 14.613642 -13.27078 Z M 14.613642 -13.27078 " transform="matrix(0.687064,0,0,0.687064,197.842307,506.113968)"/><path style="fill-rule:nonzero;fill:#92654f;fill-opacity:1;stroke-width:2;stroke-linecap:round;stroke-linejoin:round;stroke:#253237;stroke-opacity:1;stroke-miterlimit:4;" d="M 7.441333 -107.172544 C 7.441333 -107.172544 21.535501 -19.145115 21.535501 -19.145115 C 17.640985 20.419755 10.102112 63.34471 1.585346 107.173648 C -8.113989 67.233541 -16.966195 25.51958 -21.531591 -25.160294 C -21.531591 -25.160294 -11.240972 -107.172544 -11.240972 -107.172544 C -11.240972 -107.172544 7.441333 -107.172544 7.441333 -107.172544 Z M 7.441333 -107.172544 " transform="matrix(0.687064,0,0,0.687064,200.067016,590.954699)"/><path style="fill-rule:nonzero;fill:#d4d4d4;fill-opacity:1;stroke-width:2;stroke-linecap:round;stroke-linejoin:round;stroke:#253237;stroke-opacity:1;stroke-miterlimit:4;" d="M 48.542592 -19.21458 C 48.542592 -19.21458 11.411084 96.466754 11.411084 96.466754 C -0.147384 130.135838 -54.835484 111.362566 -43.277015 77.693482 C -25.333815 -0.0546995 -4.63887 -68.433301 18.011862 -130.131529 C 44.136388 -107.151043 54.836357 -70.63356 48.542592 -19.21458 Z M 48.542592 -19.21458 " transform="matrix(0.687064,0,0,0.687064,98.859075,588.971176)"/><path style="fill:none;stroke-width:2;stroke-linecap:round;stroke-linejoin:round;stroke:#253237;stroke-opacity:1;stroke-miterlimit:4;" d="M 1.412485 343.912325 C 1.412485 343.912325 453.301402 343.912325 453.301402 343.912325 " transform="matrix(0.687064,0,0,0.687064,41.599845,428.366506)"/><path style="fill-rule:nonzero;fill:#253237;fill-opacity:1;stroke-width:2;stroke-linecap:round;stroke-linejoin:round;stroke:#253237;stroke-opacity:1;stroke-miterlimit:4;" d="M 30.121129 2.495707 C 30.121129 2.495707 30.121129 17.311924 30.121129 17.311924 C -2.041318 17.931635 -18.0799 4.212705 -30.12163 -17.932023 C -9.745068 -3.491045 8.886068 2.842518 30.121129 2.495707 Z M 30.121129 2.495707 " transform="matrix(0.687064,0,0,0.687064,189.789234,453.527477)"/><path style="fill-rule:nonzero;fill:#ffffff;fill-opacity:1;stroke-width:2;stroke-linecap:butt;stroke-linejoin:miter;stroke:#253237;stroke-opacity:1;stroke-miterlimit:10;" d="M -40.869064 0.221673 C -32.754067 -10.790239 -22.234934 -20.419263 -10.582669 -29.394225 C -9.000212 -30.613801 -7.138102 -31.487848 -5.1533 -31.70831 C -1.926899 -32.063183 0.272448 -30.703425 1.628464 -27.909919 C 3.620118 -23.822463 2.439133 -18.883496 -0.869386 -15.764014 C -0.869386 -15.764014 -12.58601 -4.705728 -12.58601 -4.705728 C -6.411922 -5.647725 -0.631942 -7.489887 4.856377 -9.99051 C 11.939552 -13.212587 17.420012 -19.177902 20.372909 -26.372419 C 20.402248 -26.44771 20.433343 -26.517594 20.462682 -26.592885 C 23.232383 -33.339307 32.689979 -33.632492 35.858428 -27.063935 C 36.226592 -26.298814 36.567583 -25.506929 36.883158 -24.682874 C 40.868322 -14.147254 38.273433 -2.244808 30.8787 6.255455 C 24.789874 13.255362 16.76689 19.251718 5.794483 23.695636 C 5.794483 23.695636 -27.652515 33.630655 -27.652515 33.630655 C -27.652515 33.630655 -40.869064 0.221673 -40.869064 0.221673 Z M -40.869064 0.221673 " transform="matrix(0.653437,0.212314,-0.212314,0.653437,221.811004,617.512712)"/><path style=" stroke:none;fill-rule:nonzero;fill:#d4d4d4;fill-opacity:1;" d="M 92.835938 668.757812 C 70.125 676.113281 57.882812 638.320312 80.59375 630.964844 C 80.59375 630.964844 197.703125 604.640625 197.703125 604.640625 C 197.703125 604.640625 201.800781 635.871094 201.800781 635.871094 C 201.800781 635.871094 92.835938 668.757812 92.835938 668.757812 Z M 92.835938 668.757812 "/><path style="fill:none;stroke-width:2;stroke-linecap:butt;stroke-linejoin:miter;stroke:#253237;stroke-opacity:1;stroke-miterlimit:10;" d="M 48.304662 -67.958159 C 48.304662 -67.958159 68.023128 -26.5709 68.023128 -26.5709 C 68.023128 -26.5709 -68.018305 67.960494 -68.018305 67.960494 " transform="matrix(0.653437,0.212314,-0.212314,0.653437,151.710588,638.791202)"/><path style="fill:none;stroke-width:2;stroke-linecap:round;stroke-linejoin:round;stroke:#253237;stroke-opacity:1;stroke-miterlimit:4;" d="M -13.669189 -29.374762 C -26.743735 1.403816 -0.375267 29.367791 26.743268 13.000242 " transform="matrix(0.653437,0.212314,-0.212314,0.653437,78.117138,654.584995)"/><path style="fill:none;stroke-width:2;stroke-linecap:round;stroke-linejoin:round;stroke:#253237;stroke-opacity:1;stroke-miterlimit:4;" d="M -59.940286 35.546378 C -59.940286 35.546378 59.937691 -35.54211 59.937691 -35.54211 " transform="matrix(0.653437,0.212314,-0.212314,0.653437,150.991535,615.139506)"/><path style="fill-rule:nonzero;fill:#ffffff;fill-opacity:1;stroke-width:2;stroke-linecap:butt;stroke-linejoin:miter;stroke:#253237;stroke-opacity:1;stroke-miterlimit:10;" d="M 161.162558 -57.052272 C 161.162558 -57.052272 113.882567 70.318295 113.882567 70.318295 C 113.700634 70.801556 113.501644 71.267761 113.291283 71.72828 C 113.291283 71.72828 -163.839053 71.72828 -163.839053 71.72828 C -163.839053 71.72828 -163.839053 59.07821 -163.839053 59.07821 C -163.839053 59.07821 -133.67219 60.181183 -133.67219 60.181183 C -133.67219 60.181183 -67.260746 62.608859 -67.260746 62.608859 C -67.260746 62.608859 -26.257464 -64.528606 -26.257464 -64.528606 C -24.87022 -68.821101 -20.867681 -71.732039 -16.347769 -71.720668 C -16.347769 -71.720668 8.520279 -71.652443 8.520279 -71.652443 C 8.520279 -71.652443 36.828008 -71.561476 36.828008 -71.561476 C 36.828008 -71.561476 65.8521 -71.48188 65.8521 -71.48188 C 65.8521 -71.48188 151.54282 -71.231721 151.54282 -71.231721 C 158.837219 -71.20898 163.840393 -63.85204 161.162558 -57.052272 Z M 161.162558 -57.052272 " transform="matrix(0.687064,0,0,0.687064,232.356962,615.374338)"/><path style="fill-rule:nonzero;fill:#ffffff;fill-opacity:1;stroke-width:2;stroke-linecap:butt;stroke-linejoin:miter;stroke:#253237;stroke-opacity:1;stroke-miterlimit:10;" d="M -5.521312 -8.570353 C -2.14417 -10.861579 4.092741 -9.94054 7.134443 -7.217222 C 10.17046 -4.499589 11.154038 0.213628 9.607603 3.98875 C 8.066853 7.763872 4.178022 10.407594 0.107258 10.629326 C -4.21935 10.856743 -8.733577 8.150481 -9.944572 3.98875 C -11.149882 -0.167296 -9.808122 -6.375779 -5.521312 -8.570353 Z M -5.521312 -8.570353 " transform="matrix(0.687064,0,0,0.687064,270.199744,615.157912)"/><path style="fill-rule:nonzero;fill:#253237;fill-opacity:1;stroke-width:2;stroke-linecap:round;stroke-linejoin:round;stroke:#253237;stroke-opacity:1;stroke-miterlimit:4;" d="M 5.742734 -25.497974 C 11.098404 -8.725972 7.664408 8.290504 -2.81383 25.500284 C -2.81383 25.500284 -11.097494 -22.89405 -11.097494 -22.89405 C -11.097494 -22.89405 5.742734 -25.497974 5.742734 -25.497974 Z M 5.742734 -25.497974 " transform="matrix(0.687064,0,0,0.687064,239.909843,380.792175)"/><path style="fill-rule:nonzero;fill:#ffffff;fill-opacity:1;stroke-width:2;stroke-linecap:butt;stroke-linejoin:miter;stroke:#253237;stroke-opacity:1;stroke-miterlimit:10;" d="M -52.153451 -11.176125 C -52.153451 -11.176125 -51.68156 20.332498 -51.68156 20.332498 C -51.68156 20.332498 -48.992355 58.174684 -48.992355 58.174684 C -23.976486 75.748332 2.489165 84.640336 31.570112 77.789399 C 37.801337 76.328245 42.798825 71.688938 44.760297 65.594163 C 53.396457 38.758959 54.37435 1.564912 47.904337 -45.692338 C 25.58336 -84.637496 -23.817295 -82.266674 -54.376452 -50.121283 C -54.376452 -50.121283 -52.153451 -11.176125 -52.153451 -11.176125 Z M -52.153451 -11.176125 " transform="matrix(0.687064,0,0,0.687064,202.18041,400.768556)"/><path style="fill-rule:nonzero;fill:#ffffff;fill-opacity:1;stroke-width:2;stroke-linecap:butt;stroke-linejoin:miter;stroke:#253237;stroke-opacity:1;stroke-miterlimit:10;" d="M 11.274857 -11.298148 C 5.15734 -21.429574 -11.836394 -14.777628 -6.668343 2.216107 C -1.153481 16.418297 5.242622 20.06834 11.837714 21.432842 C 11.837714 21.432842 11.274857 -11.298148 11.274857 -11.298148 Z M 11.274857 -11.298148 " transform="matrix(0.687064,0,0,0.687064,158.597203,400.852393)"/><path style="fill-rule:nonzero;fill:#253237;fill-opacity:1;stroke-width:2;stroke-linecap:round;stroke-linejoin:round;stroke:#253237;stroke-opacity:1;stroke-miterlimit:4;" d="M 14.958336 -29.460184 C 27.312763 -10.419697 17.346214 27.121162 1.125698 36.945576 C 1.125698 36.945576 0.562841 23.004914 0.562841 23.004914 C -3.542036 18.729475 -7.970982 16.159663 -13.63935 20.247483 C -25.720877 -3.005903 -27.312796 -22.393201 -15.794126 -36.947888 C -15.794126 -36.947888 14.958336 -29.460184 14.958336 -29.460184 Z M 14.958336 -29.460184 " transform="matrix(0.687064,0,0,0.687064,165.957043,377.283997)"/><path style="fill-rule:nonzero;fill:#253237;fill-opacity:1;stroke-width:2;stroke-linecap:round;stroke-linejoin:round;stroke:#253237;stroke-opacity:1;stroke-miterlimit:4;" d="M 53.992432 -31.031807 C 72.566714 -3.076574 62.958347 18.311993 44.685392 37.682235 C 29.226723 21.154705 1.885516 19.107953 -36.280739 30.240014 C -36.280739 30.240014 -72.565119 5.912082 -72.565119 5.912082 C -69.347169 -26.91556 -33.091216 -37.678068 -5.187152 -21.372271 C 24.962654 -8.835909 45.089057 -11.445519 53.992432 -31.031807 Z M 53.992432 -31.031807 " transform="matrix(0.687064,0,0,0.687064,204.962343,347.836459)"/><path style="fill:none;stroke-width:2;stroke-linecap:round;stroke-linejoin:round;stroke:#253237;stroke-opacity:1;stroke-miterlimit:4;" d="M -2.376753 -23.881881 C -1.523939 -6.268436 2.27961 8.661489 9.022523 20.92495 C 2.524083 23.261659 -3.456984 23.881371 -9.023014 23.142265 " transform="matrix(0.687064,0,0,0.687064,221.715012,407.322441)"/><path style="fill:none;stroke-width:2;stroke-linecap:round;stroke-linejoin:round;stroke:#253237;stroke-opacity:1;stroke-miterlimit:4;" d="M 8.709777 -3.059335 C 1.000342 -4.224847 -4.804477 -1.791486 -8.710363 4.223694 " transform="matrix(0.687064,0,0,0.687064,197.203326,385.633209)"/><path style="fill:none;stroke-width:2;stroke-linecap:round;stroke-linejoin:round;stroke:#253237;stroke-opacity:1;stroke-miterlimit:4;" d="M 6.889704 2.342193 C 3.387482 -0.682453 -0.85953 -2.342597 -6.88608 -0.716566 " transform="matrix(0.687064,0,0,0.687064,229.746802,389.464983)"/><path style="fill-rule:nonzero;fill:#253237;fill-opacity:1;stroke-width:2;stroke-linecap:round;stroke-linejoin:round;stroke:#253237;stroke-opacity:1;stroke-miterlimit:4;" d="M -3.534889 0.00150083 C -3.534889 3.87896 -1.954341 7.017315 0.00144531 7.017315 C 1.951546 7.017315 3.537779 3.87896 3.537779 0.00150083 C 3.537779 -3.875959 1.951546 -7.019999 0.00144531 -7.019999 C -1.954341 -7.019999 -3.534889 -3.875959 -3.534889 0.00150083 Z M -3.534889 0.00150083 " transform="matrix(0.687064,0,0,0.687064,200.756819,401.61225)"/><path style="fill-rule:nonzero;fill:#253237;fill-opacity:1;stroke-width:2;stroke-linecap:round;stroke-linejoin:round;stroke:#253237;stroke-opacity:1;stroke-miterlimit:4;" d="M -2.79826 -0.000956927 C -2.79826 3.148768 -1.547466 5.701524 -0.00103097 5.701524 C 1.545405 5.701524 2.796198 3.148768 2.796198 -0.000956927 C 2.796198 -3.150682 1.545405 -5.703438 -0.00103097 -5.703438 C -1.547466 -5.703438 -2.79826 -3.150682 -2.79826 -0.000956927 Z M -2.79826 -0.000956927 " transform="matrix(0.687064,0,0,0.687064,229.746802,398.750657)"/><path style="fill:none;stroke-width:2;stroke-linecap:round;stroke-linejoin:round;stroke:#253237;stroke-opacity:1;stroke-miterlimit:4;" d="M 12.823156 6.334925 C 3.010114 4.214262 -5.830722 0.473252 -12.823794 -6.332201 " transform="matrix(0.687064,0,0,0.687064,203.549047,434.210002)"/><path style="fill-rule:nonzero;fill:#253237;fill-opacity:1;stroke-width:2;stroke-linecap:round;stroke-linejoin:round;stroke:#253237;stroke-opacity:1;stroke-miterlimit:4;" d="M 83.573632 77.2732 C 83.573632 77.2732 -83.572166 77.2732 -83.572166 77.2732 C -89.115455 77.2732 -93.612625 72.781714 -93.612625 67.23274 C -93.612625 67.23274 -93.612625 -67.233237 -93.612625 -67.233237 C -93.612625 -72.782211 -89.115455 -77.273697 -83.572166 -77.273697 C -83.572166 -77.273697 83.573632 -77.273697 83.573632 -77.273697 C 89.116921 -77.273697 93.614092 -72.782211 93.614092 -67.233237 C 93.614092 -67.233237 93.614092 67.23274 93.614092 67.23274 C 93.614092 72.781714 89.116921 77.2732 83.573632 77.2732 Z M 83.573632 77.2732 " transform="matrix(0.687064,0,0,0.687064,607.216293,498.19353)"/><path style="fill-rule:nonzero;fill:#ffffff;fill-opacity:1;stroke-width:2;stroke-linecap:round;stroke-linejoin:round;stroke:#253237;stroke-opacity:1;stroke-miterlimit:4;" d="M 83.57349 77.274357 C 83.57349 77.274357 -83.572307 77.274357 -83.572307 77.274357 C -89.115596 77.274357 -93.612767 72.777186 -93.612767 67.233897 C -93.612767 67.233897 -93.612767 -67.23208 -93.612767 -67.23208 C -93.612767 -72.781055 -89.115596 -77.27254 -83.572307 -77.27254 C -83.572307 -77.27254 83.57349 -77.27254 83.57349 -77.27254 C 89.116779 -77.27254 93.61395 -72.781055 93.61395 -67.23208 C 93.61395 -67.23208 93.61395 67.233897 93.61395 67.233897 C 93.61395 72.777186 89.116779 77.274357 83.57349 77.274357 Z M 83.57349 77.274357 " transform="matrix(0.687064,0,0,0.687064,600.177328,489.462267)"/><path style="fill-rule:nonzero;fill:#92654f;fill-opacity:1;stroke-width:2;stroke-linecap:round;stroke-linejoin:round;stroke:#253237;stroke-opacity:1;stroke-miterlimit:4;" d="M 47.646489 -0.0108027 C 47.646489 26.307028 26.303405 47.62737 0.00263084 47.62737 C -26.303829 47.62737 -47.641227 26.307028 -47.641227 -0.0108027 C -47.641227 -25.942024 -26.917855 -47.023579 -1.140139 -47.631919 C -1.140139 -47.631919 -1.140139 -0.0108027 -1.140139 -0.0108027 C -1.140139 -0.0108027 47.646489 -0.0108027 47.646489 -0.0108027 Z M 47.646489 -0.0108027 " transform="matrix(0.687064,0,0,0.687064,597.232567,492.483985)"/><path style="fill-rule:nonzero;fill:#253237;fill-opacity:1;stroke-width:2;stroke-linecap:round;stroke-linejoin:round;stroke:#253237;stroke-opacity:1;stroke-miterlimit:4;" d="M -24.389565 -23.821312 C -24.389565 -23.821312 -24.389565 23.822546 -24.389565 23.822546 C -24.389565 23.822546 24.391378 23.822546 24.391378 23.822546 C 23.885375 -3.291244 4.253604 -23.173174 -24.389565 -23.821312 Z M -24.389565 -23.821312 " transform="matrix(0.687064,0,0,0.687064,619.097033,470.081608)"/><path style="fill-rule:nonzero;fill:#253237;fill-opacity:1;stroke-width:2;stroke-linecap:round;stroke-linejoin:round;stroke:#253237;stroke-opacity:1;stroke-miterlimit:4;" d="M 76.48888 75.592258 C 76.48888 75.592258 -76.48884 75.592258 -76.48884 75.592258 C -85.119314 75.592258 -92.123758 68.5935 -92.123758 59.95734 C -92.123758 59.95734 -92.123758 -59.959635 -92.123758 -59.959635 C -92.123758 -68.595795 -85.119314 -75.594553 -76.48884 -75.594553 C -76.48884 -75.594553 76.48888 -75.594553 76.48888 -75.594553 C 85.119354 -75.594553 92.123797 -68.595795 92.123797 -59.959635 C 92.123797 -59.959635 92.123797 59.95734 92.123797 59.95734 C 92.123797 68.5935 85.119354 75.592258 76.48888 75.592258 Z M 76.48888 75.592258 " transform="matrix(0.687064,0,0,0.687064,337.802721,271.293757)"/><path style="fill-rule:nonzero;fill:#ffffff;fill-opacity:1;stroke-width:2;stroke-linecap:round;stroke-linejoin:round;stroke:#253237;stroke-opacity:1;stroke-miterlimit:4;" d="M 76.487208 75.591131 C 76.487208 75.591131 -76.484826 75.591131 -76.484826 75.591131 C -85.120986 75.591131 -92.119744 68.592373 -92.119744 59.956213 C -92.119744 59.956213 -92.119744 -59.960762 -92.119744 -59.960762 C -92.119744 -68.591237 -85.120986 -75.59568 -76.484826 -75.59568 C -76.484826 -75.59568 76.487208 -75.59568 76.487208 -75.59568 C 85.123368 -75.59568 92.122125 -68.591237 92.122125 -59.960762 C 92.122125 -59.960762 92.122125 59.956213 92.122125 59.956213 C 92.122125 68.592373 85.123368 75.591131 76.487208 75.591131 Z M 76.487208 75.591131 " transform="matrix(0.687064,0,0,0.687064,327.530432,263.075781)"/><path style="fill-rule:nonzero;fill:#ffffff;fill-opacity:1;stroke-width:2;stroke-linecap:round;stroke-linejoin:round;stroke:#253237;stroke-opacity:1;stroke-miterlimit:4;" d="M 36.755769 46.963718 C 66.29155 50.170297 76.900553 12.862541 49.729908 4.55045 C 57.496198 -10.726285 29.057705 -25.195691 21.285729 -9.924641 C 15.384258 -50.171761 -42.499049 -41.689108 -36.597579 -1.441987 C -68.919217 -7.059187 -76.901553 38.850617 -44.5856 44.473502 C -44.5856 44.473502 36.755769 46.963718 36.755769 46.963718 Z M 36.755769 46.963718 " transform="matrix(0.687064,0,0,0.687064,327.180031,256.834487)"/><path style="fill-rule:nonzero;fill:#92654f;fill-opacity:1;stroke-width:2;stroke-linecap:round;stroke-linejoin:round;stroke:#253237;stroke-opacity:1;stroke-miterlimit:4;" d="M 27.173157 -0.899946 C 27.173157 -0.899946 17.422653 -0.899946 17.422653 -0.899946 C 17.422653 -0.899946 17.422653 28.16963 17.422653 28.16963 C 17.422653 28.16963 -17.400572 28.16963 -17.400572 28.16963 C -17.400572 28.16963 -17.400572 -0.899946 -17.400572 -0.899946 C -17.400572 -0.899946 -27.173817 -0.899946 -27.173817 -0.899946 C -27.173817 -0.899946 0.00251255 -28.167242 0.00251255 -28.167242 C 0.00251255 -28.167242 27.173157 -0.899946 27.173157 -0.899946 Z M 27.173157 -0.899946 " transform="matrix(0.687064,0,0,0.687064,327.25218,274.653476)"/><path style="fill-rule:nonzero;fill:#253237;fill-opacity:1;stroke-width:2;stroke-linecap:round;stroke-linejoin:round;stroke:#253237;stroke-opacity:1;stroke-miterlimit:4;" d="M 68.508198 64.843339 C 68.508198 64.843339 -68.510535 64.843339 -68.510535 64.843339 C -74.053824 64.843339 -78.550994 60.346168 -78.550994 54.797194 C -78.550994 54.797194 -78.550994 -54.800736 -78.550994 -54.800736 C -78.550994 -60.344025 -74.053824 -64.841196 -68.510535 -64.841196 C -68.510535 -64.841196 68.508198 -64.841196 68.508198 -64.841196 C 74.057172 -64.841196 78.548658 -60.344025 78.548658 -54.800736 C 78.548658 -54.800736 78.548658 54.797194 78.548658 54.797194 C 78.548658 60.346168 74.057172 64.843339 68.508198 64.843339 Z M 68.508198 64.843339 " transform="matrix(0.687064,0,0,0.687064,493.371896,614.905514)"/><path style="fill-rule:nonzero;fill:#ffffff;fill-opacity:1;stroke-width:2;stroke-linecap:round;stroke-linejoin:round;stroke:#253237;stroke-opacity:1;stroke-miterlimit:4;" d="M 68.508234 64.840244 C 68.508234 64.840244 -68.510498 64.840244 -68.510498 64.840244 C -74.053787 64.840244 -78.550958 60.348759 -78.550958 54.799784 C -78.550958 54.799784 -78.550958 -54.798145 -78.550958 -54.798145 C -78.550958 -60.34712 -74.053787 -64.844291 -68.510498 -64.844291 C -68.510498 -64.844291 68.508234 -64.844291 68.508234 -64.844291 C 74.057209 -64.844291 78.548694 -60.34712 78.548694 -54.798145 C 78.548694 -54.798145 78.548694 54.799784 78.548694 54.799784 C 78.548694 60.348759 74.057209 64.840244 68.508234 64.840244 Z M 68.508234 64.840244 " transform="matrix(0.687064,0,0,0.687064,487.336715,607.321703)"/><path style="fill-rule:nonzero;fill:#ffffff;fill-opacity:1;stroke-width:2;stroke-linecap:round;stroke-linejoin:round;stroke:#253237;stroke-opacity:1;stroke-miterlimit:4;" d="M -13.721093 41.138595 C -13.721093 41.138595 13.722451 41.138595 13.722451 41.138595 C 13.722451 41.138595 13.722451 -41.140869 13.722451 -41.140869 C 13.722451 -41.140869 -13.721093 -41.140869 -13.721093 -41.140869 C -13.721093 -41.140869 -13.721093 41.138595 -13.721093 41.138595 Z M -13.721093 41.138595 " transform="matrix(0.687064,0,0,0.687064,512.18508,606.614063)"/><path style="fill-rule:nonzero;fill:#92654f;fill-opacity:1;stroke-width:2;stroke-linecap:round;stroke-linejoin:round;stroke:#253237;stroke-opacity:1;stroke-miterlimit:4;" d="M -13.721039 32.252557 C -13.721039 32.252557 13.722505 32.252557 13.722505 32.252557 C 13.722505 32.252557 13.722505 -32.25427 13.722505 -32.25427 C 13.722505 -32.25427 -13.721039 -32.25427 -13.721039 -32.25427 C -13.721039 -32.25427 -13.721039 32.252557 -13.721039 32.252557 Z M -13.721039 32.252557 " transform="matrix(0.687064,0,0,0.687064,487.337387,612.719338)"/><path style="fill-rule:nonzero;fill:#ffffff;fill-opacity:1;stroke-width:2;stroke-linecap:round;stroke-linejoin:round;stroke:#253237;stroke-opacity:1;stroke-miterlimit:4;" d="M -13.721055 20.567614 C -13.721055 20.567614 13.722489 20.567614 13.722489 20.567614 C 13.722489 20.567614 13.722489 -20.572119 13.722489 -20.572119 C 13.722489 -20.572119 -13.721055 -20.572119 -13.721055 -20.572119 C -13.721055 -20.572119 -13.721055 20.567614 -13.721055 20.567614 Z M -13.721055 20.567614 " transform="matrix(0.687064,0,0,0.687064,462.489742,620.747641)"/></g></svg>